<?xml version="1.0" encoding="utf-8"?>
<!-- Generator: Adobe Illustrator 27.5.0, SVG Export Plug-In . SVG Version: 6.00 Build 0)  -->
<svg version="1.1" id="Ñëîé_1" xmlns="http://www.w3.org/2000/svg" xmlns:xlink="http://www.w3.org/1999/xlink" x="0px" y="0px"
	 viewBox="0 0 2402.821 2200" style="enable-background:new 0 0 2402.821 2200;" xml:space="preserve">
<rect y="0" style="fill:#FFFFFF;" width="2402.821" height="2200"/>
<g>
	<path style="fill:#403630;" d="M1049.887,276.432h31.901l22.032,62.449h0.27l22.168-62.449h31.765v95.701h-21.086v-73.398h-0.27
		l-25.142,73.398h-16.085l-24.196-73.398h-0.269v73.398h-21.087V276.432z"/>
	<path style="fill:#403630;" d="M1173.565,285.759c0-3.243,1.149-6.014,3.447-8.311c2.298-2.299,5.069-3.448,8.313-3.448
		c3.244,0,6.015,1.149,8.313,3.448c2.298,2.297,3.446,5.069,3.446,8.311c0,3.245-1.148,6.016-3.446,8.313
		c-2.298,2.299-5.069,3.448-8.313,3.448c-3.245,0-6.015-1.149-8.313-3.448C1174.714,291.776,1173.565,289.004,1173.565,285.759z
		 M1175.188,306.441h20.276v65.693h-20.276V306.441z"/>
	<path style="fill:#403630;" d="M1210.061,306.441h19.465v8.922h0.27c0.629-1.26,1.531-2.521,2.703-3.785
		c1.17-1.26,2.568-2.385,4.191-3.378c1.622-0.991,3.468-1.801,5.542-2.432c2.072-0.629,4.325-0.948,6.758-0.948
		c5.136,0,9.281,0.791,12.436,2.367c3.153,1.577,5.609,3.763,7.367,6.555c1.757,2.794,2.95,6.082,3.582,9.868
		c0.629,3.785,0.946,7.887,0.946,12.3v36.226h-20.275v-32.171c0-1.892-0.068-3.851-0.203-5.879
		c-0.135-2.027-0.541-3.896-1.216-5.609c-0.676-1.711-1.713-3.109-3.109-4.191c-1.398-1.081-3.402-1.622-6.015-1.622
		c-2.614,0-4.73,0.473-6.353,1.419c-1.622,0.946-2.862,2.21-3.717,3.785c-0.858,1.577-1.42,3.358-1.69,5.338
		c-0.27,1.984-0.405,4.057-0.405,6.218v32.712h-20.276V306.441z"/>
	<path style="fill:#403630;" d="M1349.825,360.78c-3.244,4.145-7.346,7.347-12.3,9.596c-4.957,2.252-10.094,3.38-15.409,3.38
		c-5.048,0-9.8-0.812-14.261-2.432c-4.461-1.622-8.337-3.942-11.625-6.962c-3.291-3.018-5.88-6.644-7.772-10.881
		c-1.893-4.234-2.839-8.965-2.839-14.192c0-5.225,0.946-9.956,2.839-14.194c1.893-4.234,4.482-7.861,7.772-10.881
		c3.288-3.019,7.164-5.338,11.625-6.96c4.461-1.622,9.213-2.434,14.261-2.434c4.684,0,8.942,0.812,12.773,2.434
		c3.83,1.622,7.073,3.942,9.732,6.96c2.658,3.02,4.708,6.647,6.151,10.881c1.439,4.238,2.162,8.969,2.162,14.194v6.352h-47.04
		c0.811,3.876,2.569,6.962,5.272,9.259c2.704,2.299,6.036,3.448,10.002,3.448c3.333,0,6.15-0.744,8.449-2.231
		c2.298-1.487,4.302-3.401,6.014-5.745L1349.825,360.78z M1332.659,331.853c0.089-3.424-1.037-6.354-3.379-8.786
		c-2.345-2.432-5.362-3.65-9.057-3.65c-2.254,0-4.237,0.362-5.948,1.081c-1.713,0.722-3.177,1.645-4.393,2.772
		c-1.216,1.127-2.163,2.433-2.839,3.919c-0.675,1.487-1.06,3.041-1.149,4.663H1332.659z"/>
</g>
<g>
	<path style="fill:#FFEEDE;" d="M570.547,1009.282c-63.973,87.469-129.308,283.183,7.91,379.665
		c137.218,96.482,163.217,313.678,272.376,377.876c109.159,64.198,365.694,189.34,462.949,29.669
		c97.256-159.671,67.127-311.577,258.12-316.019c190.993-4.442,395.634-189.608,277.294-382.349
		c-72.221-117.626-60.154-322.81-401.264-218.867S869.156,601.001,570.547,1009.282z"/>
	<g>
		<path style="fill:#FFEEDE;" d="M615.263,871.468l0.775,28.259h5.708l-6.615-241.263v-7.849h-26.4v-21.138h-2.854v21.138h-26.4
			v7.849l-6.615,241.263h5.708l0.775-28.259l27.959-16.142L615.263,871.468z M591.362,852.982l22.141-12.783l0.917,0.529
			l0.712,25.978L591.362,852.982z M565.104,661.398l18.713,10.804l-19.315,11.151L565.104,661.398z M561.153,805.533l0.696-25.394
			l21.795,12.583l-22.34,12.898L561.153,805.533z M613.304,805.621l-22.34-12.898l21.795-12.583l0.696,25.394L613.304,805.621z
			 M587.304,790.609l-22.433-12.952l22.433-12.952l22.433,12.952L587.304,790.609z M587.304,794.836l22.34,12.898l-22.34,12.898
			l-22.34-12.898L587.304,794.836z M613.49,809.954l0.087,0.05l0.687,25.069l-0.974,0.562l-22.141-12.783L613.49,809.954z
			 M612.621,775.096l-21.657-12.504l20.982-12.114L612.621,775.096z M611.783,744.534l-20.908-12.072l20.257-11.695L611.783,744.534
			z M610.317,691.059l0.628,22.909l-20.154-11.636L610.317,691.059z M587.304,700.319l-22.607-13.052l22.607-13.052l22.607,13.052
			L587.304,700.319z M609.869,717.373l-22.565,13.028l-22.565-13.028l22.565-13.028L609.869,717.373z M583.734,732.462
			l-20.909,12.072l0.652-23.767L583.734,732.462z M587.304,734.524l22.478,12.978l-22.478,12.978l-22.478-12.978L587.304,734.524z
			 M610.105,683.354l-19.315-11.151l18.713-10.804L610.105,683.354z M587.304,670.189l-20.308-11.725h40.616L587.304,670.189z
			 M564.291,691.059l19.526,11.273l-20.154,11.636L564.291,691.059z M583.644,762.592l-21.657,12.504l0.675-24.617L583.644,762.592z
			 M560.343,835.073l0.687-25.069l0.087-0.05l22.34,12.898l-22.141,12.783L560.343,835.073z M587.304,825.073l22.141,12.783
			l-22.141,12.783l-22.141-12.783L587.304,825.073z M559.475,866.706l0.712-25.978l0.917-0.529l22.141,12.783L559.475,866.706z"/>
		<path style="fill:#FFEEDE;" d="M578.753,634.533c-6.073-6.206-3.229-15.117-3.229-15.117c-0.258,6.975,7.492,8.785,7.492,8.785
			s-5.105-6.967-1.448-11.452c3.273-4.012,3.901-8.438,3.901-8.438c2.069,7.492-1.655,13.528,3.258,16.809
			c7.019,4.669,12.501-3.251,12.501-3.251c0.643,4.78-3.362,11.112-3.362,11.112s0.081-0.067,0.222-0.2
			c1.36-1.219,8.586-8.076,9.982-16.72c1.552-9.561-6.458-16.536-6.458-16.536c3.362,7.233-8.135,15.242-9.686,6.325
			c-1.552-8.91-9.945-7.492-11.63-16.277c-1.633-8.548,2.364-13.55,2.579-13.809c-10.846,9.42-7.869,16.912-5.549,23.111
			c2.327,6.199-0.517,8.918-0.517,8.918c-1.13-5.423-5.711-8.622-5.933-8.777c0.111,0.259,3.022,7.189-0.909,18.722
			C565.963,629.494,578.753,634.533,578.753,634.533z"/>
	</g>
	<path style="fill:#FFEEDE;" d="M888.328,745.29c0-8.128-6.568-14.696-14.66-14.696c-7.526,0-13.709,5.632-14.586,12.917h-12.46
		l-8.308-3.866l22.623-48.618l1.026,0.477l3.066-6.589c2.123-0.549,3.693-2.472,3.693-4.766v-3.151v-1.939v-3.07v-12.873v-1.939
		h-94.094l-0.18-2.101h24.224v2.101h4.282l-2.262-4.578h-2.02v0.054h-24.431l-3.605-42.123h-5.925c0,0-23.916,17.131-23.916,56.557
		c0,5.322,0.439,10.235,1.193,14.757v31.205c-1.635,0.151-2.915,1.525-2.915,3.2v0.071h-0.969v2.02h0.969v1.347h-0.969v2.02h0.969
		v0.556c0,0.228,0.185,0.414,0.414,0.414h2.118v31.856h-0.431v0.62h-0.202v6.544h-1.131v0.848h1.131v10.221h-1.683v1.172h-2.464
		v1.172h3.299v6.302h-0.901c-0.42-1.3-1.635-2.238-3.07-2.238c-1.79,0-3.236,1.446-3.236,3.236c0,1.782,1.446,3.228,3.236,3.228
		c1.434,0,2.649-0.938,3.069-2.232h0.902v5.319h4.336v-11.513h8.834v-0.323h0.875v-0.545h1.387v1.581h0.528v-3.528h-0.528v1.581
		h-1.387v-0.545h-0.875v-0.323h-5.535v-1.172h-2.464v-1.172h-1.683v-3.717h2.142c0.436,1.268,1.637,2.182,3.059,2.182
		c1.782,0,3.228-1.446,3.228-3.228c0-1.79-1.446-3.236-3.228-3.236c-1.42,0-2.62,0.912-3.057,2.182h-2.143v-4.403h1.131v-0.848
		h-1.131v-6.544h-0.202v-0.62h-0.431v-31.856h2.111c0.229,0,0.414-0.185,0.414-0.414v-0.556h0.969v-2.02h-0.969v-1.347h0.969v-2.02
		h-0.969v-0.071c0-1.674-1.28-3.048-2.915-3.2v-28c5.554,26.723,22.124,38.597,22.124,38.597h5.925l3.992-46.648h33.201v4.12
		c0,0.301,0.031,0.594,0.083,0.88c-0.052,0.286-0.083,0.579-0.083,0.88v4.462h-3.151h-0.431l-2.343,14.866h-7.622h-0.727h-0.027
		v12.604v0.7v3.501h5.727l-10.987,69.709h4.363l10.987-69.709h18.279l2.21,14.023l-17.561-8.172l-4,8.595l23.339,10.86l6.999,44.402
		h4.363l-2.641-16.757c0.556,0.835,1.505,1.385,2.583,1.385h6.271v15.371h27.632v-15.371h6.271c1.713,0,3.102-1.389,3.102-3.102
		v-11.972C885.137,755.824,888.328,750.929,888.328,745.29z M736.521,781.409v-1.498c0.421,0.062,0.806,0.224,1.133,0.467
		l-1.031,1.031H736.521z M735.781,781.409h-0.103l-1.03-1.03c0.327-0.243,0.712-0.405,1.132-0.468V781.409z M735.781,783.402v1.5
		c-0.421-0.063-0.807-0.226-1.134-0.469l1.031-1.031H735.781z M736.521,783.402h0.102l1.032,1.032
		c-0.327,0.243-0.713,0.406-1.134,0.468V783.402z M737.671,781.409l0.508-0.507c0.117,0.158,0.222,0.325,0.301,0.507H737.671z
		 M734.124,780.903l0.506,0.506h-0.069c-0.399,0-0.741,0.236-0.9,0.575C733.729,781.583,733.891,781.216,734.124,780.903z
		 M733.661,782.826c0.159,0.339,0.501,0.576,0.9,0.576h0.069l-0.507,0.507C733.89,783.595,733.729,783.228,733.661,782.826z
		 M738.179,783.91l-0.508-0.508h0.809C738.402,783.585,738.297,783.752,738.179,783.91z M747.408,767.121l0.239,0.24h-0.239V767.121
		z M747.654,768.633l-0.245,0.245v-0.245H747.654z M748.44,768.894v1.602c-0.421-0.063-0.807-0.225-1.133-0.469L748.44,768.894z
		 M749.181,768.894l1.135,1.135c-0.327,0.243-0.713,0.406-1.135,0.468V768.894z M749.705,768.37h1.603
		c-0.062,0.422-0.225,0.807-0.468,1.135L749.705,768.37z M749.705,767.629l1.134-1.134c0.243,0.327,0.406,0.712,0.469,1.134H749.705
		z M749.181,767.106v-1.601c0.421,0.062,0.806,0.224,1.133,0.467L749.181,767.106z M748.44,767.106l-1.133-1.133
		c0.327-0.243,0.712-0.405,1.133-0.468V767.106z M746.511,769.047h0.728l-0.456,0.456
		C746.678,769.361,746.586,769.21,746.511,769.047z M746.784,766.497l0.449,0.45h-0.718
		C746.589,766.786,746.68,766.637,746.784,766.497z M878.103,743.604c-0.104-0.026-0.211-0.046-0.319-0.061l5.115-5.115
		c1.109,1.489,1.865,3.255,2.148,5.175H878.103z M875.345,741.225v-7.315c1.919,0.281,3.685,1.035,5.174,2.141L875.345,741.225z
		 M871.982,741.225l-5.17-5.17c1.488-1.107,3.252-1.862,5.17-2.144V741.225z M880.466,746.967h4.582
		c-0.281,1.921-1.037,3.689-2.145,5.179l-2.437-2.437V746.967z M864.433,738.434l5.077,5.077h-7.208
		C862.595,741.629,863.344,739.898,864.433,738.434z M765.49,612.796h3.07l1.956,22.875c-4.167,1.238-11.371,2.291-21.213-0.274
		C755.159,621.839,763.332,614.558,765.49,612.796z M768.56,721.379h-3.07c-2.158-1.763-10.33-9.044-16.187-22.601
		c9.842-2.565,17.047-1.513,21.213-0.274L768.56,721.379z M806.51,700.671h12.498l0.242,1.535h-1.562h-0.754v0.929v11.675h-8.349
		v-11.675h0.027v-0.929h-0.027h-0.754h-1.562L806.51,700.671z M794.283,714.811v-11.675h7.475l-1.84,11.675H794.283z
		 M806.122,703.136h1.709v11.675h-3.549L806.122,703.136z M817.687,714.811v-11.675h1.709l1.84,11.675H817.687z M825.599,714.811
		l-1.84-11.675h7.475v11.675H825.599z M826.261,719.012h5.727v-3.501v-0.7v-11.675v-0.929h-0.754h-7.622l-2.343-14.866h-3.582
		v-4.462c0-0.301-0.031-0.594-0.083-0.88c0.052-0.286,0.083-0.579,0.083-0.88v-4.12h41.179v3.151c0,1.553,0.72,2.936,1.842,3.84
		l-2.651,5.698l1.026,0.477l-22.623,48.618l-7.642-3.556L826.261,719.012z M830.596,746.51l3.493,1.625v20.537L830.596,746.51z
		 M880.466,754.466l0.059,0.059c-0.019,0.014-0.039,0.028-0.059,0.042V754.466z"/>
	<g>
		<path style="fill:#4CA676;" d="M1918.357,1924.743c40.529-25.921,78.385-41.827,75.644-91.265
			c-2.741-49.438-0.979-95.285,49.071-124.147c50.051-28.861,27.11-73.872,37.842-113.2c10.732-39.327,49.7-54.596,49.7-54.596
			c-11.4,3.585-22.178,9.538-31.89,17.269c-9.51,7.901-18.056,17.892-23.429,29.933c-5.778,12.01-7.76,25.247-9.249,37.398
			c-1.435,12.167-2.327,23.832-5.067,33.469c-1.358,4.808-3.056,9.113-5.298,12.678c-2.22,3.593-4.839,6.572-7.934,9.185
			c-3.09,2.609-6.693,4.859-10.735,6.831c-0.955,0.523-2.051,0.963-3.101,1.425l-1.572,0.693l-2.28,1.149
			c-3.128,1.615-6.293,3.182-9.416,4.922c-12.426,7.158-24.423,17.154-33.938,29.643c-9.615,12.445-16.154,27.032-20.324,41.216
			c-4.194,14.256-6.246,28.213-7.549,41.463c-0.653,6.645-1.085,13.113-1.446,19.444l-0.248,4.717l-0.123,2.361
			c-0.067,0.61-0.176,0.902-0.256,1.365l-0.465,2.506l-0.195,1.236c-0.1,0.377-0.26,0.695-0.377,1.042
			c-0.558,1.306-0.747,2.827-1.485,3.747c-0.296,0.521-0.558,1.035-0.787,1.551c-0.275,0.486-0.705,0.834-0.99,1.257
			c-1.094,1.673-2.803,2.847-4.417,4.339c-3.783,2.876-9.955,6.754-18.474,11.061c-8.455,4.323-18.886,9.021-30.178,14.531
			l-4.308,2.144l-2.156,1.074l-1.078,0.537c-0.406,0.214-0.592,0.265-1.268,0.676c-2.293,1.358-4.599,2.724-6.842,4.191
			c-2.201,1.523-4.425,3.053-6.557,4.683c-8.536,6.55-16.045,14.275-22.282,22.42c-12.521,16.4-20.102,33.952-24.974,50.695
			c-2.463,8.433-4.222,16.75-5.51,25.11c-0.625,4.184-1.132,8.376-1.498,12.679c-0.189,2.146-0.329,4.34-0.435,6.617l-0.112,3.566
			l-0.013,1.978l0.013,1.126c0.019,0.513,0.003,0.657,0.08,1.766l60.917-5.526
			C1883.364,2011.701,1877.828,1950.664,1918.357,1924.743z"/>
		<path style="fill:#295A40;" d="M2080.914,1596.133c-10.732,39.327,12.209,84.338-37.842,113.2
			c-50.051,28.861-51.813,74.709-49.071,124.147c2.741,49.438-35.115,65.344-75.644,91.265
			c-40.529,25.921-34.993,86.957-34.993,86.957l60.585-5.496c-0.044-0.151-0.088-0.314-0.132-0.474
			c-0.173-0.686-0.346-1.456-0.489-2.274c-0.301-1.624-0.542-3.356-0.74-5.084c-0.363-3.457-0.542-6.916-0.501-10.073
			c0.022-6.415,0.871-11.497,1.591-14.815c0.371-1.69,0.691-3.004,1.113-4.224c0.113-0.302,0.256-0.56,0.356-0.905
			c0.144-0.288,0.315-0.554,0.449-0.895c-0.075-0.022,0.382-0.344,0.599-0.53l0.803-0.646l1.608-1.293l3.219-2.589
			c8.831-7.021,18.866-14.337,29.921-23.502c2.824-2.422,5.497-4.561,8.435-7.32l4.289-3.96c1.431-1.348,2.927-2.93,4.368-4.391
			c5.778-5.772,11.635-13.042,16.848-20.882c1.27-2.075,2.49-4.227,3.686-6.353c1.194-2.134,2.385-4.231,3.346-6.583
			c1.008-2.293,1.978-4.595,2.909-6.899c0.992-2.275,1.556-4.73,2.295-7.093c0.659-2.384,1.407-4.775,1.883-7.151
			c0.422-2.376,0.81-4.752,1.164-7.123c0.882-4.811,0.803-9.268,0.985-13.837c0.018-1.128,0.069-2.282,0.042-3.382l-0.218-3.21
			l-0.513-6.385l-0.297-3.08l-0.34-2.08l-0.682-4.164c-0.879-5.512-1.682-10.896-2.305-16.107
			c-1.263-10.439-1.875-20.273-1.342-29.271c0.555-9.002,2.125-17.155,5.471-24.63c3.313-7.479,8.372-14.582,15.345-21.046
			c1.784-1.574,3.693-3.087,5.547-4.68c0.5-0.412,0.864-0.755,1.476-1.23l2.216-1.633c1.472-1.094,2.938-2.15,4.372-3.385
			c5.757-4.682,11.27-10.171,15.928-16.542c4.668-6.347,8.37-13.561,10.753-20.891c2.44-7.344,3.456-14.688,3.835-21.589
			c0.687-13.876-1.208-26.034-2.263-37.545c-1.056-11.451-1.724-22.322,0.75-32.677c2.136-10.522,7.385-20.56,14.401-29.569
			c7.211-8.842,16.136-16.774,26.482-22.674C2130.614,1541.536,2091.646,1556.806,2080.914,1596.133z"/>
	</g>
	<g>
		<path style="fill:#4CA676;" d="M1887.237,1601.303c-8.125-79.064,2.097-104.48,46.613-134.247
			c44.516-29.767,59.987-67.602,49.417-110.558s-8.255-80.807,31.558-93.698c39.813-12.891,46.89-56.214,36.23-85.01
			c2.918,6.357,4.869,13.222,5.92,20.279c1.009,7.054,1.271,14.358,0.182,21.61c-1.033,7.248-3.147,14.473-6.531,21.295
			c-3.407,6.818-8.343,12.974-14.196,18.185c-1.511,1.241-3.015,2.527-4.58,3.728l-4.978,3.17c-1.644,1.143-3.443,1.884-5.212,2.751
			l-2.674,1.266l-1.345,0.63l-1.08,0.545c-5.633,2.565-10.459,5.978-14.284,9.858c-3.851,3.889-6.206,8.647-7.753,13.69
			c-1.464,5.104-2.185,10.555-1.975,16.418c0.194,5.84,0.869,11.786,2.152,17.915c1.192,6.087,2.755,12.25,4.606,18.442l1.406,4.636
			l1.543,5.844c1.134,3.862,1.678,7.97,2.465,11.996c0.297,2.043,0.475,4.125,0.705,6.195c0.238,2.07,0.433,4.151,0.436,6.271
			l0.136,6.346l-0.364,6.399c-0.077,1.068-0.122,2.14-0.233,3.208l-0.46,3.198c-0.335,2.129-0.591,4.283-1.029,6.4
			c-1.005,4.203-1.892,8.483-3.392,12.552c-2.625,8.307-6.507,16.082-10.87,23.424c-8.952,14.557-20.414,26.818-32.694,37.116
			l-9.29,7.332c-2.393,1.953-4.93,3.864-7.197,5.817l-3.304,2.93l-1.651,1.454l-1.449,1.48l-2.907,2.922
			c-0.93,0.974-1.661,1.971-2.508,2.936c-6.697,7.815-9.411,15.05-11.322,24.334c-1.701,9.382-1.631,21.074-0.686,33.38l0.867,9.374
			l1.183,9.611c0.382,3.193,0.945,6.515,1.406,9.761l0.725,4.893c0.058,0.323,0.126,0.99,0.191,1.604l0.19,1.838l0.355,3.685
			c1.812,19.747-2.27,40.326-9.936,57.687c-7.608,17.571-18.376,32.205-29.864,44.907c-11.6,12.62-24.131,23.413-37.189,32.946
			c-6.533,4.781-13.203,9.256-20.078,13.45c-3.43,2.11-6.924,4.136-10.496,6.132c-1.785,0.994-3.612,1.98-5.471,2.959l-2.889,1.482
			c-1.083,0.536-1.805,0.916-3.502,1.687l-16.487-38.945C1785.65,1726.814,1895.362,1680.366,1887.237,1601.303z"/>
		<path style="fill:#295A40;" d="M2050.507,1218.237c2.054-6.342,2.932-13.118,3.073-19.938c0.1-6.828-0.673-13.761-2.525-20.509
			c10.66,28.796,3.583,72.119-36.23,85.01c-39.813,12.891-42.128,50.741-31.558,93.698s-4.901,80.791-49.417,110.558
			c-44.516,29.767-54.739,55.184-46.613,134.247c8.125,79.063-101.588,125.51-101.588,125.511l-16.487-38.945
			c-0.097,0.083,0.767-0.257,1.267-0.447l1.842-0.734l3.899-1.667c2.633-1.172,5.299-2.403,7.937-3.715
			c5.281-2.615,10.506-5.414,15.552-8.383c10.119-5.925,19.475-12.601,27.533-19.743c7.995-7.155,14.569-14.828,19.011-22.435
			c2.34-3.806,3.923-7.609,5.158-11.436c1.309-3.826,1.9-7.701,2.099-11.766l0.053-1.531l0.039-0.77
			c0.015-0.256,0.041-0.458,0.007-1.002l-0.23-5.513c-0.132-3.694-0.35-7.299-0.405-11.059l-0.178-11.244l0.164-11.514
			c0.554-15.493,1.758-31.935,7.037-49.596l2.279-6.618c0.405-1.099,0.739-2.19,1.213-3.287l1.486-3.28
			c1.019-2.174,1.978-4.356,3.094-6.481l3.683-6.251c1.186-2.111,2.625-4.022,4.047-5.942c1.439-1.89,2.807-3.898,4.344-5.639
			c3.094-3.437,6.167-7.018,9.467-9.886c1.629-1.482,3.252-3.064,4.9-4.429l4.966-3.949l2.487-1.955l2.485-1.739l4.971-3.451
			c3.308-2.224,6.585-4.161,9.875-6.236l7.754-4.761c9.918-6.503,18.592-14.019,25.372-22.496c3.268-4.285,6.281-8.732,8.422-13.536
			c1.267-2.343,2.018-4.855,3.004-7.326c0.429-1.253,0.705-2.551,1.086-3.83l0.549-1.929c0.148-0.653,0.239-1.32,0.365-1.981
			l0.742-3.991l0.385-4.101c0.193-1.365,0.213-2.762,0.207-4.168c0.002-1.405,0.076-2.81,0.043-4.232
			c-0.269-2.858-0.215-5.729-0.749-8.644l-0.601-4.383l-0.921-5.551c-0.666-3.661-1.052-7.49-1.554-11.224
			c-0.293-3.843-0.703-7.606-0.776-11.525l-0.126-5.838l0.246-5.946c0.041-1.957,0.272-3.981,0.499-5.99
			c0.258-2.019,0.353-3.977,0.797-6.03c1.177-8.037,3.836-16.329,7.931-23.966c4.127-7.61,9.944-14.619,16.962-19.528
			c6.991-4.896,14.603-8.158,22.175-10.062l4.64-1.346c1.458-0.438,2.999-0.755,4.345-1.433l4.225-1.78
			c1.332-0.725,2.626-1.523,3.966-2.28c5.151-3.267,9.918-7.433,13.663-12.608
			C2045.613,1230.511,2048.512,1224.582,2050.507,1218.237z"/>
	</g>
	<g>
		<path style="fill:#4CA676;" d="M1897.953,1743.098c66.942-42.598,80.514-66.342,76.256-119.634
			c-4.258-53.292,15.788-88.835,55.97-107.16c40.182-18.324,68.387-43.575,53.827-82.734s14.981-71.528,44.131-81.012
			c-6.784,1.652-13.368,4.375-19.545,7.922c-6.148,3.578-12.03,7.896-17.034,13.239c-5.036,5.297-9.385,11.427-12.631,18.301
			c-3.229,6.889-4.992,14.567-5.449,22.377c-0.036,1.952-0.111,3.926-0.083,5.895l0.6,5.861c0.123,1.995,0.657,3.863,1.073,5.785
			l0.665,2.878l0.339,1.443l0.242,1.183c1.479,6,1.796,11.892,1.126,17.29c-0.66,5.424-2.928,10.214-5.919,14.549
			c-3.09,4.307-6.912,8.247-11.633,11.714c-4.693,3.465-9.767,6.618-15.36,9.409c-5.505,2.836-11.298,5.428-17.293,7.813
			l-4.501,1.771l-5.532,2.411c-3.726,1.503-7.28,3.622-10.919,5.498c-1.784,1.032-3.524,2.182-5.287,3.284
			c-1.768,1.096-3.519,2.231-5.18,3.542l-5.054,3.823l-4.785,4.248c-0.789,0.721-1.6,1.421-2.368,2.169l-2.219,2.34
			c-1.46,1.581-2.988,3.115-4.374,4.769c-2.669,3.389-5.471,6.735-7.728,10.429c-4.879,7.199-8.564,15.054-11.611,23.017
			c-5.855,16.024-8.358,32.592-8.818,48.585l0.012,11.815c-0.048,3.083,0.027,6.253-0.098,9.237l-0.249,4.402l-0.116,2.193
			l-0.262,2.052l-0.488,4.086c-0.187,1.331-0.515,2.521-0.746,3.782c-1.973,10.084-5.957,16.69-12.044,23.934
			c-6.293,7.142-15.491,14.327-25.713,21.208l-7.877,5.125l-8.259,5.026c-2.737,1.678-5.686,3.294-8.514,4.944l-4.28,2.462
			c-0.289,0.155-0.853,0.514-1.374,0.844l-1.557,0.99l-3.106,2.004c-16.585,10.809-30.171,26.75-39.019,43.503
			c-9.047,16.839-13.839,34.333-16.671,51.193c-2.699,16.898-3.39,33.394-2.768,49.522c0.302,8.076,0.928,16.071,1.901,24.051
			c0.472,3.993,1.049,7.983,1.698,12.016c0.327,2.013,0.686,4.054,1.071,6.117l0.629,3.18c0.251,1.18,0.4,1.98,0.847,3.787
			l40.705-11.206C1862.582,1900.368,1831.012,1785.695,1897.953,1743.098z"/>
		<path style="fill:#295A40;" d="M2096.805,1378.035c3.694-5.536,8.457-10.419,13.709-14.753
			c5.285-4.307,11.192-7.995,17.623-10.723c-29.15,9.484-58.691,41.854-44.131,81.012s-13.645,64.41-53.827,82.734
			c-40.182,18.324-60.228,53.868-55.97,107.16c4.258,53.292-9.314,77.036-76.256,119.634
			c-66.942,42.598-35.372,157.27-35.371,157.271l40.705-11.206c-0.005,0.127-0.274-0.76-0.435-1.269l-0.565-1.897l-1.109-4.085
			c-0.713-2.787-1.4-5.637-2.006-8.515c-1.222-5.755-2.267-11.58-3.066-17.369c-1.626-11.592-2.193-23.053-1.59-33.786
			c0.652-10.691,2.589-20.59,5.795-28.779c1.531-4.189,3.529-7.784,5.761-11.121c2.186-3.394,4.854-6.256,7.914-8.93l1.166-0.989
			l0.579-0.507c0.191-0.17,0.334-0.316,0.78-0.626l4.46-3.234c2.974-2.185,5.932-4.246,8.911-6.531l8.915-6.823l8.914-7.258
			c11.789-10.028,23.918-21.153,34.478-36.223l3.77-5.883c0.61-0.998,1.257-1.935,1.823-2.985l1.648-3.194
			c1.072-2.144,2.186-4.247,3.159-6.437l2.614-6.755c0.918-2.236,1.523-4.546,2.147-6.849c0.589-2.298,1.314-4.612,1.725-6.893
			c0.775-4.551,1.676-9.175,1.879-13.534c0.152-2.194,0.385-4.444,0.433-6.58l0.017-6.334l-0.009-3.158l-0.177-3.023l-0.376-6.03
			c-0.307-3.967-0.82-7.733-1.232-11.594l-1.073-9.021c-1.049-11.793-0.536-23.24,1.904-33.798
			c1.331-5.212,2.948-10.326,5.383-14.977c1.05-2.443,2.552-4.587,3.877-6.889c0.716-1.112,1.561-2.132,2.327-3.222l1.171-1.624
			c0.42-0.52,0.886-1.004,1.325-1.513l2.666-3.052l2.973-2.841c0.949-0.996,2.031-1.877,3.135-2.743
			c1.099-0.872,2.153-1.8,3.287-2.655c2.404-1.559,4.619-3.38,7.233-4.767l3.805-2.244l4.917-2.716
			c3.28-1.746,6.516-3.814,9.751-5.733c3.191-2.15,6.392-4.159,9.505-6.529l4.649-3.517l4.504-3.875
			c1.507-1.244,2.948-2.678,4.382-4.1c1.421-1.453,2.896-2.74,4.228-4.358c5.564-5.899,10.411-13.116,13.855-21.051
			c3.403-7.944,5.289-16.84,4.788-25.375c-0.495-8.506-2.655-16.487-5.853-23.595l-1.82-4.467c-0.56-1.413-1.266-2.816-1.568-4.289
			l-1.223-4.411c-0.257-1.492-0.433-2.999-0.671-4.518c-0.632-6.057-0.322-12.369,1.412-18.506
			C2090.225,1389.468,2093.073,1383.526,2096.805,1378.035z"/>
	</g>
	<g>
		<path style="fill:#4CA676;" d="M484.465,1905.905c-40.529-25.921-78.385-41.827-75.644-91.265
			c2.741-49.438,0.979-95.285-49.071-124.146c-50.051-28.861-27.11-73.872-37.842-113.2c-10.732-39.327-49.7-54.596-49.7-54.596
			c11.4,3.585,22.178,9.538,31.89,17.269c9.511,7.901,18.056,17.892,23.43,29.933c5.778,12.01,7.76,25.247,9.249,37.398
			c1.435,12.167,2.327,23.832,5.067,33.469c1.358,4.808,3.056,9.113,5.298,12.679c2.22,3.593,4.839,6.572,7.934,9.185
			c3.09,2.609,6.694,4.859,10.735,6.831c0.955,0.523,2.051,0.963,3.101,1.425l1.572,0.693l2.28,1.149
			c3.128,1.615,6.292,3.182,9.416,4.922c12.426,7.158,24.423,17.154,33.938,29.643c9.615,12.446,16.154,27.032,20.324,41.216
			c4.194,14.256,6.246,28.213,7.549,41.463c0.653,6.645,1.085,13.113,1.446,19.444l0.248,4.716l0.123,2.361
			c0.067,0.61,0.177,0.903,0.256,1.365l0.465,2.506l0.195,1.236c0.1,0.377,0.26,0.695,0.377,1.042
			c0.558,1.306,0.747,2.827,1.485,3.747c0.296,0.52,0.558,1.035,0.787,1.551c0.275,0.486,0.705,0.834,0.99,1.257
			c1.094,1.673,2.803,2.847,4.417,4.339c3.783,2.876,9.955,6.754,18.475,11.061c8.455,4.323,18.886,9.021,30.178,14.531l4.308,2.144
			l2.156,1.074l1.078,0.537c0.407,0.214,0.592,0.265,1.268,0.676c2.293,1.358,4.599,2.724,6.842,4.191
			c2.201,1.523,4.425,3.053,6.557,4.683c8.536,6.55,16.045,14.275,22.282,22.42c12.521,16.4,20.102,33.952,24.974,50.695
			c2.463,8.433,4.222,16.75,5.51,25.11c0.625,4.184,1.132,8.376,1.498,12.679c0.189,2.146,0.329,4.34,0.435,6.617l0.112,3.566
			l0.013,1.977l-0.013,1.126c-0.019,0.513-0.003,0.657-0.08,1.766l-60.917-5.526
			C519.457,1992.862,524.994,1931.825,484.465,1905.905z"/>
		<path style="fill:#295A40;" d="M321.907,1577.294c10.732,39.327-12.209,84.338,37.842,113.2
			c50.051,28.861,51.813,74.709,49.071,124.146c-2.741,49.438,35.115,65.344,75.644,91.265
			c40.529,25.921,34.993,86.957,34.993,86.957l-60.585-5.496c0.044-0.151,0.088-0.314,0.132-0.474
			c0.173-0.686,0.346-1.456,0.489-2.274c0.301-1.624,0.542-3.356,0.74-5.084c0.363-3.457,0.542-6.916,0.501-10.074
			c-0.022-6.415-0.871-11.497-1.591-14.815c-0.371-1.69-0.691-3.004-1.113-4.225c-0.113-0.301-0.256-0.56-0.356-0.905
			c-0.143-0.288-0.315-0.554-0.449-0.895c0.075-0.022-0.382-0.344-0.599-0.53l-0.803-0.646l-1.608-1.293l-3.219-2.589
			c-8.831-7.021-18.866-14.337-29.92-23.502c-2.825-2.422-5.497-4.561-8.435-7.32l-4.289-3.96c-1.431-1.348-2.927-2.93-4.368-4.391
			c-5.778-5.772-11.635-13.042-16.848-20.882c-1.27-2.075-2.49-4.227-3.686-6.353c-1.194-2.134-2.385-4.231-3.346-6.583
			c-1.008-2.293-1.978-4.595-2.909-6.899c-0.992-2.275-1.555-4.73-2.295-7.093c-0.659-2.385-1.407-4.775-1.883-7.151
			c-0.421-2.375-0.81-4.752-1.164-7.123c-0.882-4.811-0.803-9.268-0.985-13.837c-0.018-1.128-0.069-2.282-0.042-3.382l0.218-3.21
			l0.513-6.385l0.297-3.08l0.34-2.08l0.682-4.164c0.879-5.512,1.682-10.896,2.305-16.107c1.263-10.44,1.875-20.273,1.342-29.271
			c-0.555-9.002-2.125-17.155-5.471-24.63c-3.313-7.479-8.372-14.582-15.345-21.046c-1.784-1.575-3.693-3.087-5.547-4.68
			c-0.499-0.412-0.864-0.755-1.476-1.23l-2.216-1.633c-1.472-1.094-2.938-2.15-4.372-3.385c-5.757-4.682-11.27-10.171-15.928-16.542
			c-4.668-6.347-8.37-13.561-10.753-20.892c-2.44-7.344-3.456-14.688-3.835-21.589c-0.687-13.876,1.208-26.034,2.263-37.545
			c1.056-11.451,1.724-22.322-0.75-32.677c-2.137-10.522-7.384-20.56-14.401-29.569c-7.211-8.842-16.136-16.774-26.482-22.674
			C272.207,1522.697,311.175,1537.967,321.907,1577.294z"/>
	</g>
	<g>
		<path style="fill:#4CA676;" d="M515.584,1582.464c8.125-79.064-2.097-104.48-46.613-134.247
			c-44.516-29.767-59.987-67.602-49.417-110.558c10.57-42.956,8.255-80.807-31.558-93.698c-39.813-12.891-46.89-56.214-36.23-85.01
			c-2.918,6.357-4.869,13.222-5.92,20.279c-1.009,7.054-1.271,14.358-0.182,21.61c1.033,7.248,3.147,14.474,6.531,21.295
			c3.407,6.818,8.343,12.974,14.196,18.185c1.511,1.241,3.015,2.527,4.58,3.728l4.978,3.17c1.644,1.143,3.444,1.884,5.212,2.751
			l2.674,1.266l1.345,0.63l1.08,0.545c5.633,2.565,10.459,5.978,14.284,9.858c3.851,3.889,6.206,8.647,7.753,13.69
			c1.464,5.104,2.185,10.555,1.975,16.418c-0.194,5.84-0.869,11.786-2.152,17.915c-1.192,6.087-2.755,12.25-4.606,18.442
			l-1.406,4.636l-1.543,5.844c-1.134,3.862-1.678,7.97-2.465,11.996c-0.297,2.043-0.475,4.125-0.705,6.195
			c-0.238,2.07-0.434,4.151-0.436,6.271l-0.136,6.346l0.364,6.399c0.076,1.068,0.122,2.14,0.233,3.208l0.46,3.198
			c0.335,2.129,0.591,4.283,1.029,6.4c1.005,4.203,1.892,8.483,3.392,12.552c2.625,8.307,6.507,16.082,10.87,23.424
			c8.952,14.557,20.414,26.817,32.694,37.116l9.29,7.332c2.393,1.953,4.93,3.864,7.197,5.817l3.304,2.93l1.651,1.454l1.449,1.48
			l2.907,2.922c0.93,0.974,1.661,1.971,2.508,2.936c6.697,7.815,9.411,15.05,11.322,24.334c1.701,9.382,1.631,21.074,0.686,33.38
			l-0.867,9.374l-1.183,9.611c-0.382,3.193-0.945,6.515-1.405,9.761l-0.725,4.893c-0.058,0.323-0.126,0.99-0.191,1.604l-0.19,1.838
			l-0.355,3.685c-1.812,19.747,2.27,40.326,9.936,57.687c7.608,17.571,18.376,32.205,29.864,44.907
			c11.6,12.62,24.131,23.413,37.189,32.945c6.533,4.781,13.203,9.256,20.078,13.45c3.43,2.11,6.924,4.136,10.496,6.132
			c1.785,0.994,3.612,1.98,5.471,2.959l2.889,1.482c1.083,0.536,1.805,0.916,3.502,1.687l16.487-38.945
			C617.172,1707.975,507.459,1661.528,515.584,1582.464z"/>
		<path style="fill:#295A40;" d="M352.314,1199.398c-2.054-6.342-2.932-13.118-3.073-19.938c-0.1-6.828,0.673-13.761,2.525-20.509
			c-10.66,28.796-3.584,72.119,36.23,85.01c39.813,12.891,42.128,50.742,31.558,93.698c-10.57,42.956,4.901,80.791,49.417,110.558
			c44.516,29.767,54.739,55.184,46.613,134.247c-8.125,79.063,101.587,125.511,101.588,125.511l16.487-38.945
			c0.097,0.083-0.767-0.257-1.267-0.447l-1.842-0.734l-3.899-1.667c-2.633-1.172-5.299-2.402-7.937-3.715
			c-5.281-2.615-10.506-5.414-15.552-8.383c-10.118-5.926-19.475-12.601-27.533-19.743c-7.995-7.155-14.569-14.828-19.011-22.435
			c-2.34-3.806-3.923-7.609-5.158-11.436c-1.309-3.826-1.9-7.701-2.099-11.766l-0.053-1.531l-0.039-0.77
			c-0.015-0.255-0.041-0.458-0.007-1.002l0.23-5.513c0.132-3.694,0.35-7.299,0.406-11.059l0.178-11.244l-0.164-11.513
			c-0.554-15.493-1.758-31.935-7.037-49.596l-2.279-6.618c-0.405-1.099-0.739-2.19-1.213-3.287l-1.486-3.28
			c-1.019-2.174-1.978-4.356-3.094-6.481l-3.683-6.251c-1.187-2.111-2.625-4.022-4.047-5.942c-1.439-1.89-2.807-3.898-4.344-5.639
			c-3.094-3.437-6.167-7.018-9.466-9.886c-1.629-1.482-3.252-3.064-4.9-4.429l-4.966-3.949l-2.487-1.955l-2.485-1.739l-4.971-3.451
			c-3.308-2.224-6.585-4.161-9.875-6.236l-7.754-4.762c-9.918-6.503-18.592-14.019-25.372-22.496
			c-3.268-4.285-6.281-8.732-8.422-13.536c-1.267-2.343-2.018-4.855-3.004-7.327c-0.429-1.253-0.705-2.551-1.086-3.83l-0.549-1.929
			c-0.148-0.653-0.239-1.32-0.365-1.981l-0.742-3.991l-0.385-4.101c-0.193-1.365-0.213-2.762-0.207-4.168
			c-0.002-1.405-0.076-2.81-0.043-4.232c0.269-2.857,0.215-5.729,0.749-8.644l0.602-4.383l0.921-5.551
			c0.666-3.661,1.052-7.49,1.554-11.224c0.293-3.843,0.703-7.606,0.776-11.525l0.126-5.838l-0.246-5.946
			c-0.041-1.957-0.272-3.981-0.499-5.99c-0.258-2.019-0.353-3.977-0.797-6.03c-1.178-8.037-3.836-16.329-7.931-23.966
			c-4.127-7.61-9.944-14.619-16.962-19.529c-6.991-4.896-14.603-8.158-22.175-10.062l-4.641-1.346
			c-1.458-0.438-2.999-0.755-4.345-1.433l-4.225-1.78c-1.332-0.725-2.626-1.523-3.966-2.28c-5.152-3.267-9.918-7.433-13.663-12.608
			C357.208,1211.672,354.309,1205.743,352.314,1199.398z"/>
	</g>
	<g>
		<path style="fill:#4CA676;" d="M504.868,1724.259c-66.942-42.598-80.514-66.342-76.256-119.634
			c4.258-53.292-15.788-88.835-55.97-107.16c-40.182-18.324-68.387-43.575-53.827-82.734s-14.981-71.528-44.131-81.012
			c6.784,1.652,13.368,4.375,19.545,7.922c6.148,3.578,12.03,7.896,17.034,13.239c5.036,5.297,9.385,11.427,12.63,18.3
			c3.229,6.889,4.993,14.567,5.449,22.377c0.036,1.952,0.111,3.926,0.083,5.895l-0.6,5.861c-0.123,1.995-0.657,3.863-1.073,5.785
			l-0.665,2.878l-0.339,1.443l-0.242,1.183c-1.479,6-1.796,11.892-1.126,17.29c0.66,5.424,2.928,10.214,5.919,14.549
			c3.09,4.307,6.912,8.247,11.633,11.714c4.693,3.464,9.767,6.618,15.36,9.409c5.505,2.836,11.298,5.428,17.293,7.813l4.501,1.771
			l5.532,2.411c3.726,1.504,7.28,3.622,10.919,5.498c1.784,1.032,3.524,2.182,5.287,3.284c1.768,1.096,3.519,2.231,5.18,3.542
			l5.054,3.823l4.785,4.248c0.789,0.721,1.6,1.421,2.368,2.169l2.219,2.34c1.46,1.581,2.988,3.115,4.374,4.769
			c2.669,3.389,5.471,6.735,7.728,10.429c4.879,7.199,8.564,15.054,11.611,23.017c5.855,16.024,8.358,32.592,8.818,48.585
			l-0.012,11.815c0.048,3.083-0.027,6.253,0.098,9.237l0.249,4.402l0.116,2.193l0.262,2.052l0.488,4.086
			c0.186,1.331,0.515,2.521,0.746,3.782c1.973,10.084,5.957,16.69,12.044,23.934c6.293,7.142,15.491,14.327,25.713,21.208
			l7.877,5.125l8.259,5.026c2.737,1.678,5.686,3.294,8.514,4.944l4.28,2.462c0.289,0.155,0.853,0.514,1.374,0.844l1.557,0.989
			l3.105,2.005c16.585,10.809,30.171,26.75,39.019,43.503c9.047,16.839,13.839,34.333,16.671,51.193
			c2.699,16.898,3.39,33.394,2.768,49.522c-0.302,8.076-0.928,16.071-1.901,24.051c-0.472,3.992-1.049,7.983-1.698,12.016
			c-0.327,2.013-0.686,4.054-1.071,6.117l-0.629,3.18c-0.251,1.18-0.4,1.981-0.848,3.787l-40.705-11.206
			C540.239,1881.529,571.809,1766.856,504.868,1724.259z"/>
		<path style="fill:#295A40;" d="M306.016,1359.196c-3.694-5.536-8.457-10.419-13.709-14.753
			c-5.285-4.307-11.192-7.995-17.623-10.723c29.15,9.484,58.691,41.854,44.131,81.012s13.645,64.41,53.827,82.734
			c40.182,18.324,60.228,53.868,55.97,107.16c-4.258,53.292,9.314,77.036,76.256,119.634
			c66.942,42.598,35.372,157.27,35.371,157.271l-40.705-11.206c0.005,0.127,0.273-0.76,0.435-1.269l0.565-1.897l1.109-4.085
			c0.713-2.787,1.4-5.637,2.006-8.515c1.223-5.755,2.267-11.58,3.066-17.369c1.626-11.593,2.193-23.053,1.59-33.786
			c-0.652-10.691-2.59-20.59-5.795-28.779c-1.531-4.189-3.529-7.784-5.761-11.121c-2.186-3.394-4.853-6.256-7.913-8.93l-1.166-0.989
			l-0.579-0.507c-0.191-0.17-0.334-0.316-0.78-0.626l-4.46-3.234c-2.974-2.185-5.932-4.246-8.911-6.531l-8.915-6.823l-8.914-7.258
			c-11.789-10.028-23.918-21.153-34.478-36.223l-3.77-5.883c-0.61-0.998-1.257-1.935-1.823-2.985l-1.648-3.194
			c-1.072-2.144-2.186-4.247-3.159-6.436l-2.614-6.755c-0.918-2.236-1.523-4.546-2.147-6.849c-0.589-2.298-1.314-4.612-1.725-6.893
			c-0.775-4.551-1.676-9.175-1.879-13.534c-0.152-2.194-0.385-4.444-0.433-6.58l-0.017-6.334l0.009-3.158l0.177-3.023l0.376-6.03
			c0.307-3.967,0.82-7.733,1.232-11.594l1.073-9.021c1.049-11.793,0.536-23.24-1.904-33.798c-1.331-5.212-2.948-10.326-5.383-14.977
			c-1.05-2.443-2.553-4.587-3.877-6.889c-0.716-1.112-1.561-2.132-2.327-3.222l-1.17-1.624c-0.42-0.52-0.886-1.004-1.325-1.513
			l-2.666-3.052l-2.973-2.841c-0.949-0.996-2.031-1.877-3.136-2.743c-1.099-0.872-2.153-1.8-3.287-2.654
			c-2.404-1.559-4.619-3.38-7.233-4.767l-3.805-2.244l-4.917-2.716c-3.28-1.746-6.516-3.814-9.751-5.733
			c-3.191-2.15-6.391-4.16-9.505-6.529l-4.649-3.517l-4.504-3.875c-1.507-1.244-2.948-2.678-4.382-4.1
			c-1.421-1.453-2.896-2.74-4.228-4.358c-5.565-5.899-10.411-13.116-13.855-21.051c-3.403-7.944-5.289-16.84-4.788-25.375
			c0.495-8.506,2.655-16.487,5.853-23.595l1.82-4.467c0.56-1.413,1.266-2.816,1.569-4.289l1.223-4.411
			c0.257-1.492,0.433-2.999,0.671-4.518c0.632-6.057,0.322-12.369-1.412-18.507C312.596,1370.629,309.748,1364.687,306.016,1359.196
			z"/>
	</g>
	<path style="fill:#FFEEDE;" d="M1106.461,664.467c-3.635,22.501-22.443,40.348-25.982,43.521c-0.365,0.346-0.577,0.519-0.577,0.519
		s10.424-16.482,8.75-28.924c0,0-14.27,20.616-32.54,8.462c-12.789-8.539-3.096-24.251-8.481-43.752c0,0-1.635,11.52-10.154,21.962
		c-9.52,11.674,3.769,29.809,3.769,29.809s-20.174-4.712-19.501-22.866c0,0-7.404,23.193,8.404,39.348
		c0,0-33.29-13.116-22.866-43.714c10.231-30.021,2.654-48.06,2.366-48.733c0.577,0.404,12.501,8.731,15.443,22.847
		c0,0,7.404-7.077,1.346-23.213c-6.039-16.135-13.789-35.636,14.443-60.156c-0.558,0.673-10.962,13.693-6.712,35.944
		c4.385,22.866,26.232,19.174,30.271,42.367c4.038,23.213,33.963,2.365,25.212-16.462
		C1089.653,621.427,1110.5,639.582,1106.461,664.467z"/>
	<path style="fill:#FFEEDE;" d="M2050.71,945.828l-15.496-16.922c-0.432-0.469-1.009-0.729-1.617-0.729h-135.385l-6.772-3.751v5.852
		l13.159,2.344l11.233,4.898l-7.526,0.132c-0.496,0.009-0.924,0.376-1.037,0.892l-1.58,7.173h-0.115h-10.968h-0.648h-11.575h-0.661
		v0.733v12.952v1.29h0.661h4.573l-0.001,0.003h-5.882c-0.504,0-0.912,0.408-0.912,0.912v5.451v8.525v20.403
		c0,0.888,0.72,1.617,1.617,1.617h5.139c0.288,0,0.528-0.24,0.528-0.528v-1.955h5.263c0,0.028-0.001,0.057,0.006,0.085
		c0.078,0.324,0.162,0.646,0.254,0.965c0.045,0.155,0.193,0.265,0.353,0.25c0.5-0.046,0.987,0.245,1.166,0.739
		c0.18,0.494-0.006,1.03-0.419,1.316c-0.133,0.092-0.175,0.273-0.11,0.42c0.135,0.304,0.279,0.604,0.427,0.901
		c0.072,0.143,0.234,0.226,0.388,0.184c0.484-0.131,1.012,0.071,1.275,0.525c0.262,0.453,0.173,1.011-0.181,1.365
		c-0.113,0.113-0.123,0.296-0.034,0.429c0.185,0.279,0.376,0.553,0.574,0.822c0.095,0.13,0.271,0.183,0.417,0.115
		c0.453-0.212,1.006-0.107,1.343,0.294c0.336,0.4,0.344,0.963,0.057,1.371c-0.092,0.131-0.07,0.313,0.041,0.429
		c0.232,0.243,0.469,0.48,0.712,0.712c0.116,0.111,0.298,0.133,0.429,0.041c0.409-0.286,0.971-0.278,1.371,0.058
		c0.401,0.336,0.506,0.89,0.295,1.343c-0.068,0.146-0.015,0.322,0.115,0.417c0.27,0.197,0.544,0.388,0.822,0.574
		c0.133,0.089,0.316,0.079,0.429-0.034c0.353-0.354,0.911-0.443,1.365-0.181c0.454,0.262,0.656,0.791,0.525,1.275
		c-0.042,0.154,0.041,0.317,0.184,0.388c0.297,0.148,0.597,0.292,0.901,0.427c0.148,0.066,0.328,0.023,0.42-0.11
		c0.286-0.413,0.822-0.599,1.316-0.419c0.494,0.18,0.785,0.667,0.739,1.166c-0.015,0.161,0.095,0.309,0.25,0.354
		c0.319,0.092,0.641,0.176,0.965,0.254c0.156,0.037,0.324-0.034,0.391-0.179c0.211-0.454,0.705-0.73,1.221-0.638
		c0.516,0.091,0.885,0.517,0.929,1.015c0.014,0.159,0.147,0.283,0.306,0.301c0.33,0.037,0.661,0.069,0.995,0.091
		c0.165,0.011,0.316-0.097,0.36-0.257c0.132-0.478,0.569-0.829,1.089-0.829c0.52,0,0.956,0.351,1.089,0.829
		c0.044,0.159,0.195,0.268,0.36,0.257c0.334-0.023,0.666-0.054,0.995-0.091c0.159-0.018,0.292-0.142,0.306-0.301
		c0.043-0.498,0.414-0.924,0.929-1.015c0.516-0.091,1.011,0.184,1.222,0.638c0.067,0.145,0.236,0.216,0.391,0.179
		c0.324-0.078,0.647-0.162,0.965-0.254c0.155-0.045,0.265-0.193,0.25-0.354c-0.046-0.5,0.245-0.986,0.739-1.166
		c0.494-0.18,1.03,0.006,1.316,0.419c0.092,0.133,0.273,0.175,0.42,0.11c0.304-0.135,0.604-0.279,0.901-0.427
		c0.143-0.071,0.226-0.234,0.184-0.388c-0.131-0.483,0.071-1.012,0.525-1.275c0.453-0.262,1.011-0.173,1.365,0.181
		c0.113,0.113,0.296,0.123,0.429,0.034c0.278-0.186,0.553-0.376,0.823-0.574c0.13-0.095,0.183-0.271,0.115-0.417
		c-0.212-0.453-0.107-1.006,0.294-1.343c0.401-0.336,0.963-0.344,1.372-0.058c0.131,0.092,0.313,0.07,0.429-0.041
		c0.243-0.232,0.48-0.47,0.712-0.712c0.111-0.116,0.133-0.298,0.041-0.429c-0.286-0.409-0.278-0.971,0.058-1.372
		c0.336-0.401,0.89-0.506,1.343-0.294c0.146,0.068,0.322,0.015,0.417-0.115c0.198-0.269,0.388-0.544,0.574-0.823
		c0.089-0.133,0.079-0.316-0.034-0.429c-0.354-0.353-0.443-0.911-0.181-1.365c0.262-0.454,0.791-0.656,1.275-0.525
		c0.154,0.042,0.317-0.041,0.388-0.184c0.148-0.297,0.292-0.597,0.427-0.901c0.066-0.148,0.023-0.328-0.11-0.42
		c-0.413-0.286-0.599-0.822-0.419-1.316c0.18-0.494,0.667-0.785,1.166-0.739c0.161,0.015,0.309-0.095,0.353-0.25
		c0.092-0.319,0.176-0.641,0.254-0.965c0.037-0.155-0.034-0.324-0.179-0.391c-0.454-0.211-0.729-0.705-0.639-1.221
		c0.091-0.516,0.517-0.886,1.015-0.929c0.159-0.014,0.283-0.147,0.301-0.306c0.037-0.33,0.069-0.661,0.091-0.995
		c0.011-0.165-0.098-0.316-0.257-0.36c-0.478-0.132-0.829-0.569-0.829-1.089h7.386v2.55c0,0.477,0.387,0.863,0.863,0.863h15.649
		c0.477,0,0.863-0.387,0.863-0.863v-2.55h11.035c0,0.52-0.351,0.957-0.829,1.089c-0.159,0.044-0.268,0.195-0.257,0.36
		c0.023,0.334,0.054,0.666,0.091,0.995c0.018,0.159,0.142,0.292,0.301,0.306c0.498,0.043,0.924,0.414,1.015,0.929
		c0.091,0.516-0.184,1.011-0.638,1.221c-0.145,0.067-0.216,0.236-0.179,0.391c0.078,0.324,0.162,0.646,0.254,0.965
		c0.045,0.155,0.193,0.265,0.353,0.25c0.5-0.046,0.986,0.245,1.166,0.739c0.18,0.494-0.006,1.03-0.419,1.316
		c-0.133,0.092-0.175,0.273-0.11,0.42c0.135,0.304,0.279,0.604,0.427,0.901c0.071,0.143,0.234,0.226,0.388,0.184
		c0.484-0.131,1.012,0.071,1.275,0.525c0.262,0.453,0.173,1.011-0.181,1.365c-0.113,0.113-0.123,0.296-0.034,0.429
		c0.185,0.279,0.376,0.553,0.574,0.822c0.095,0.13,0.271,0.183,0.416,0.115c0.453-0.212,1.006-0.107,1.343,0.294
		c0.336,0.4,0.344,0.963,0.057,1.371c-0.092,0.131-0.07,0.313,0.041,0.429c0.232,0.243,0.47,0.48,0.712,0.712
		c0.116,0.111,0.298,0.133,0.429,0.041c0.409-0.286,0.971-0.278,1.371,0.058c0.401,0.336,0.506,0.89,0.294,1.343
		c-0.068,0.146-0.015,0.322,0.115,0.417c0.269,0.197,0.544,0.388,0.822,0.574c0.133,0.089,0.316,0.079,0.429-0.034
		c0.353-0.354,0.911-0.443,1.365-0.181c0.454,0.262,0.656,0.791,0.525,1.275c-0.042,0.154,0.041,0.317,0.184,0.388
		c0.297,0.148,0.597,0.292,0.901,0.427c0.148,0.066,0.328,0.023,0.421-0.11c0.286-0.413,0.822-0.599,1.316-0.419
		c0.494,0.18,0.785,0.667,0.739,1.166c-0.015,0.161,0.095,0.309,0.25,0.354c0.319,0.092,0.641,0.176,0.965,0.254
		c0.155,0.037,0.324-0.034,0.391-0.179c0.211-0.454,0.705-0.73,1.222-0.638c0.515,0.091,0.885,0.517,0.929,1.015
		c0.014,0.159,0.147,0.283,0.306,0.301c0.33,0.037,0.661,0.069,0.995,0.091c0.165,0.011,0.316-0.097,0.36-0.257
		c0.132-0.478,0.569-0.829,1.089-0.829s0.957,0.351,1.089,0.829c0.044,0.159,0.195,0.268,0.36,0.257
		c0.334-0.023,0.666-0.054,0.995-0.091c0.159-0.018,0.292-0.142,0.306-0.301c0.043-0.498,0.413-0.924,0.929-1.015
		c0.516-0.091,1.011,0.184,1.221,0.638c0.067,0.145,0.236,0.216,0.391,0.179c0.324-0.078,0.646-0.162,0.965-0.254
		c0.155-0.045,0.265-0.193,0.25-0.354c-0.046-0.5,0.245-0.986,0.739-1.166c0.494-0.18,1.03,0.006,1.316,0.419
		c0.092,0.133,0.273,0.175,0.421,0.11c0.304-0.135,0.604-0.279,0.901-0.427c0.143-0.071,0.226-0.234,0.184-0.388
		c-0.131-0.483,0.071-1.012,0.525-1.275c0.453-0.262,1.011-0.173,1.365,0.181c0.113,0.113,0.296,0.123,0.429,0.034
		c0.278-0.186,0.553-0.376,0.822-0.574c0.13-0.095,0.183-0.271,0.115-0.417c-0.212-0.453-0.107-1.006,0.294-1.343
		c0.401-0.336,0.963-0.344,1.371-0.058c0.131,0.092,0.313,0.07,0.429-0.041c0.243-0.232,0.48-0.47,0.712-0.712
		c0.111-0.116,0.133-0.298,0.041-0.429c-0.286-0.409-0.278-0.971,0.058-1.372c0.336-0.401,0.89-0.506,1.343-0.294
		c0.146,0.068,0.321,0.015,0.417-0.115c0.197-0.269,0.388-0.544,0.574-0.823c0.089-0.133,0.079-0.316-0.034-0.429
		c-0.354-0.353-0.443-0.911-0.181-1.365c0.262-0.454,0.791-0.656,1.275-0.525c0.154,0.042,0.317-0.041,0.388-0.184
		c0.148-0.297,0.292-0.597,0.427-0.901c0.066-0.148,0.023-0.328-0.11-0.42c-0.413-0.286-0.599-0.822-0.419-1.316
		c0.18-0.494,0.667-0.785,1.166-0.739c0.161,0.015,0.309-0.095,0.353-0.25c0.092-0.319,0.176-0.641,0.254-0.965
		c0.037-0.155-0.034-0.324-0.179-0.391c-0.454-0.211-0.729-0.705-0.639-1.221c0.091-0.516,0.517-0.886,1.015-0.929
		c0.159-0.014,0.283-0.147,0.301-0.306c0.037-0.33,0.069-0.661,0.091-0.995c0.011-0.165-0.098-0.316-0.257-0.36
		c-0.478-0.132-0.829-0.569-0.829-1.089s0.351-0.956,0.829-1.089c0.159-0.044,0.268-0.195,0.257-0.36
		c-0.023-0.334-0.054-0.666-0.091-0.995c-0.018-0.159-0.142-0.292-0.301-0.306c-0.498-0.044-0.924-0.414-1.015-0.929
		c-0.091-0.516,0.184-1.011,0.639-1.221c0.145-0.067,0.216-0.236,0.179-0.391c-0.078-0.325-0.162-0.646-0.254-0.965
		c-0.045-0.155-0.193-0.265-0.353-0.25c-0.5,0.046-0.987-0.245-1.166-0.739c-0.18-0.494,0.006-1.03,0.419-1.316
		c0.133-0.092,0.175-0.273,0.11-0.42c-0.135-0.304-0.279-0.604-0.427-0.901c-0.071-0.143-0.234-0.226-0.388-0.184
		c-0.484,0.131-1.012-0.071-1.275-0.525c-0.262-0.453-0.173-1.011,0.181-1.365c0.113-0.113,0.123-0.296,0.034-0.429
		c-0.185-0.279-0.376-0.553-0.574-0.822c-0.095-0.13-0.271-0.183-0.417-0.115c-0.453,0.212-1.006,0.107-1.343-0.294
		c-0.336-0.4-0.344-0.963-0.058-1.372c0.092-0.131,0.07-0.313-0.041-0.429c-0.232-0.243-0.469-0.48-0.712-0.712
		c-0.116-0.111-0.298-0.133-0.429-0.041c-0.348,0.244-0.807,0.272-1.183,0.068v-14.281c0.099,0.014,0.201,0.009,0.302-0.022
		l3.303-0.998c0.211-0.064,0.377-0.219,0.475-0.419l9.831-2.772c0.182,0.182,0.434,0.263,0.677,0.189l3.431-1.036
		c0.21-0.063,0.367-0.229,0.452-0.439l21.566-6.082l4.05-1.137C2050.87,946.697,2051.006,946.15,2050.71,945.828z M1905.527,946.449
		l-2.854,12.952h-8.068v-12.952H1905.527z M1882.383,959.401v-12.952h11.575v12.952H1882.383z"/>
	<g>
		<polygon style="fill:#C2937A;" points="441.938,2000.16 689.26,944.601 841.968,1355.584 1021.269,832.696 1286.916,636.651 
			1508.428,1249.423 1654.607,774.997 1947.503,2016.604 		"/>
		<polygon style="fill:#826352;" points="689.26,944.601 689.015,1125.615 719.606,1188.457 752.549,1380.236 670.992,1652.765 
			763.458,1831.857 740.029,2003.416 441.938,2000.16 		"/>
		<polygon style="fill:#F2BF8D;" points="1213.76,1212.791 1171.404,1093.611 1107.87,1336.703 1153.756,1427.93 1166.148,1289.208 
			1199.642,1362.39 1194.721,1276.314 1213.76,1324.804 1237.292,1133.158 		"/>
		<polygon style="fill:#F2BF8D;" points="1299.649,998.371 1279.016,1119.04 1352.705,1362.39 1360.83,1262.074 1405.539,1244.223 
			1464.728,1295.524 1371.872,1071.093 1344.358,1134.335 		"/>
		<polygon style="fill:#826352;" points="1508.428,1249.423 1654.607,774.997 1647.068,1179.619 1696.786,1434.626 
			1654.607,1688.456 1630.428,1808.614 1581.43,1688.456 1570.252,1461.325 		"/>
		<polygon style="fill:#F2BF8D;" points="1455.401,1102.733 1250.01,663.887 1286.916,636.651 		"/>
		<polygon style="fill:#826352;" points="1021.269,832.696 1013.745,1234.689 1137.284,1470.974 1178.276,1661.433 
			1352.705,1754.381 1419.813,2010.84 930.361,2005.495 841.968,1355.584 		"/>
		<polygon style="fill:#FFF1F0;" points="912.641,1143.321 1020.412,832.696 1287.148,636.062 1381.414,898.061 1289.06,882.551 
			1241.998,1088.879 1185.523,888.036 1073.75,1212.791 1027.864,1041.387 		"/>
		<polygon style="fill:#FFF1F0;" points="1729.768,1093.611 1654.38,774.037 1557.012,1086.154 1616.947,1034.72 1647.068,1179.619 
					"/>
		<polygon style="fill:#F2BF8D;" points="863.318,1512.56 827.065,1384.942 806.495,1427.93 743.137,1114.333 741.11,1084.145 
			841.968,1355.584 		"/>
		<polygon style="fill:#C2937A;" points="950.211,1209.243 949.051,1212.791 916.091,1313.564 950.211,1446.907 976.095,1390.623 
			1041.79,1537.895 1020.02,1390.623 978.94,1304.152 953.349,1353.815 		"/>
		<polygon style="fill:#FFF1F0;" points="611.068,1271.033 689.015,1125.615 719.606,1188.457 743.137,1114.333 786.872,1207.304 
			688.755,943.241 		"/>
		<polygon style="fill:#FFFFFF;" points="1729.768,1093.611 1696.786,1127.912 1696.786,1051.584 1677.324,1083.743 
			1677.324,984.128 1667.065,954.321 1654.607,774.997 		"/>
		<path style="fill:#FFFFFF;" d="M1659.284,972.754c0,0,11.373,24.566,11.373,25.617c0,1.052-8.236,96.353-8.236,96.353l8.236,18.04
			l-17.256,42.752l-8.84-79.226l13.048-52.945L1659.284,972.754z"/>
		<polygon style="fill:#FFFFFF;" points="1381.414,898.061 1357.75,894.087 1303.963,802.938 1300.041,832.696 1273.373,724.5 
			1287.148,636.062 		"/>
		<polygon style="fill:#FFFFFF;" points="1273.373,866.472 1255.565,977.308 1241.998,944.601 1241.998,1034.72 1210.623,866.472 
			1217.682,796.663 1241.998,850.784 1241.998,749.6 		"/>
		<polygon style="fill:#FFFFFF;" points="786.872,1207.304 689.26,944.601 704.703,1084.145 717.253,1077.962 718.821,1134.219 
			732.63,1147.43 743.137,1114.333 		"/>
	</g>
	<rect x="691.68" y="1522.819" style="fill:#403630;" width="328.556" height="483.403"/>
	<path style="fill:#FFEEDE;" d="M1844.667,878.115l-10.2-43.633l1.067-0.249l-0.657-2.809l2.219-0.519l0.459,1.966l1.57-0.367
		l-1.215-5.196l-1.57,0.367l0.46,1.966l-2.219,0.519l-0.657-2.809l-1.067,0.249l-4.284-18.327l1.067-0.249l-23.407-100.131l0,0
		l-2.058-8.805h1.192v-3.575h-4.005v-2.103h0.377v-2.103h0.605v-2.103h3.023V688.1h-4.005v-2.103h4.53v-5.223v-2.033v-24.244
		c0-0.975-0.79-1.764-1.764-1.764h-1.162v-3.751h-0.754v-7.852v-0.911c0-0.503-0.408-0.911-0.911-0.911h-1.297h-18.577h-1.297
		c-0.503,0-0.911,0.408-0.911,0.911v0.911v7.852h-0.754v3.751h-1.162c-0.974,0-1.765,0.79-1.765,1.764v24.244v2.033v5.223h4.531
		v2.103h-4.005v2.103h3.023v2.103h0.605v2.103h0.377v2.103h-4.005v3.575h1.192l-1.287,5.505l0,0l-24.179,103.431l1.067,0.249
		l-4.284,18.327l-1.067-0.249l-0.657,2.809l-2.219-0.519l0.46-1.966l-1.57-0.367l-1.215,5.196l1.57,0.367l0.46-1.966l2.219,0.519
		l-0.657,2.809l1.067,0.249l-10.2,43.633l6.291-0.04l9.865-42.201l1.067,0.249l1.609-6.881l-1.067-0.249l4.284-18.327l1.067,0.249
		l23.407-100.131l0,0l2.5-10.696h0.877v7.466v3.295v99.967h1.095v18.297h-1.095v6.87h1.095v42.132h6.116v-42.132h1.095v-2.804h2.278
		v1.963h1.612v-5.188h-1.612v1.963h-2.278v-2.804h-1.095v-18.297h1.095v-99.967v-3.295v-7.466h0.672l2.5,10.696l0,0l23.407,100.131
		l1.067-0.249l4.284,18.327l-1.067,0.249l1.609,6.881l1.067-0.249l9.865,42.201L1844.667,878.115z M1781.427,642.042
		c0-0.503,0.408-0.911,0.911-0.911h16.755c0.503,0,0.911,0.408,0.911,0.911v6.94h-0.754v3.751h-1.162
		c-0.974,0-1.765,0.79-1.765,1.764v-6.374c0-1.055-0.855-1.91-1.91-1.91h-7.396c-1.055,0-1.91,0.855-1.91,1.91v6.374
		c0-0.975-0.79-1.764-1.764-1.764h-1.162v-3.751h-0.754V642.042z M1785.107,672.344c0,1.055,0.855,1.91,1.91,1.91h7.396
		c1.055,0,1.91-0.855,1.91-1.91v6.397h-11.217V672.344z M1764.197,782.82l-3.823-0.894l16.956-72.535l3.823,0.894L1764.197,782.82z
		 M1792.78,783.265h-3.926v-72.417h3.926V783.265z M1804.099,709.391l16.957,72.535l-3.823,0.894l-16.957-72.535L1804.099,709.391z"
		/>
	<g>
		
			<rect x="454.533" y="1738.966" transform="matrix(6.123234e-17 -1 1 6.123234e-17 -1072.9866 2450.1951)" style="fill:#C7BBBB;" width="468.142" height="45.25"/>
		<ellipse style="fill:#ADA3A3;" cx="688.604" cy="1527.52" rx="22.625" ry="15.261"/>
	</g>
	<g>
		
			<rect x="789.241" y="1738.966" transform="matrix(6.123234e-17 -1 1 6.123234e-17 -738.2786 2784.9028)" style="fill:#C7BBBB;" width="468.142" height="45.25"/>
		<ellipse style="fill:#ADA3A3;" cx="1023.312" cy="1527.52" rx="22.625" ry="15.261"/>
	</g>
	<g>
		<rect x="647.554" y="1489.528" style="fill:#C7BBBB;" width="416.809" height="40.288"/>
		<ellipse style="fill:#ADA3A3;" cx="1064.363" cy="1509.672" rx="13.588" ry="20.144"/>
		<ellipse style="fill:#C7BBBB;" cx="647.554" cy="1509.672" rx="13.588" ry="20.144"/>
	</g>
	<rect x="763.458" y="1951.477" style="fill:#877F7F;" width="1101.637" height="19.732"/>
	<rect x="763.458" y="1951.477" style="fill:#877F7F;" width="19.598" height="43.525"/>
	
		<rect x="1845.498" y="1951.477" transform="matrix(-1 -1.224647e-16 1.224647e-16 -1 3710.5933 3946.4788)" style="fill:#877F7F;" width="19.598" height="43.525"/>
	
		<rect x="1664.923" y="1951.477" transform="matrix(-1 -1.224647e-16 1.224647e-16 -1 3349.4429 3946.4788)" style="fill:#877F7F;" width="19.598" height="43.525"/>
	<path style="fill:#295A40;" d="M1970.898,2024H414.09c-7.649,0-13.908-6.259-13.908-13.908v-0.977
		c0-7.649,6.258-13.908,13.908-13.908h1556.808c7.649,0,13.908,6.259,13.908,13.908v0.977
		C1984.806,2017.741,1978.548,2024,1970.898,2024z"/>
	
		<rect x="1484.348" y="1951.477" transform="matrix(-1 -1.224647e-16 1.224647e-16 -1 2988.293 3946.4788)" style="fill:#877F7F;" width="19.598" height="43.525"/>
	
		<rect x="1303.773" y="1951.477" transform="matrix(-1 -1.224647e-16 1.224647e-16 -1 2627.1428 3946.4788)" style="fill:#877F7F;" width="19.598" height="43.525"/>
	
		<rect x="1123.198" y="1951.477" transform="matrix(-1 -1.224647e-16 1.224647e-16 -1 2265.9929 3946.4788)" style="fill:#877F7F;" width="19.598" height="43.525"/>
	
		<rect x="942.622" y="1951.477" transform="matrix(-1 -1.224647e-16 1.224647e-16 -1 1904.8427 3946.4788)" style="fill:#877F7F;" width="19.598" height="43.525"/>
	<g>
		
			<ellipse transform="matrix(0.1351 -0.9908 0.9908 0.1351 -879.4297 2857.0989)" style="fill:#736C6C;" cx="1196.768" cy="1932.267" rx="19.209" ry="19.209"/>
		<g>
			<g>
				<polygon style="fill:#F2A18D;" points="1133.471,1396.537 1122.5,1256.359 1046.926,1463.579 				"/>
				<polygon style="fill:#FFD2C7;" points="1133.471,1396.537 1198.074,1441.638 1122.5,1256.359 				"/>
				<polygon style="fill:#F17F7E;" points="1046.926,1463.579 1133.471,1789.035 1133.471,1396.537 				"/>
				<polygon style="fill:#F2A18D;" points="1198.074,1441.638 1133.471,1789.035 1133.471,1396.537 				"/>
				<path style="fill:#FFF1F0;" d="M1133.471,1396.537c-2.106-11.588-3.644-23.221-4.982-34.869
					c-0.722-5.82-1.239-11.656-1.852-17.484l-1.53-17.51l-1.22-17.534c-0.297-5.853-0.703-11.698-0.892-17.56
					c-0.492-11.714-0.78-23.445-0.495-35.22c2.114,11.588,3.654,23.22,4.991,34.868c0.725,5.82,1.233,11.656,1.851,17.485
					l1.523,17.51l1.212,17.535c0.301,5.853,0.699,11.698,0.891,17.56C1133.458,1373.032,1133.749,1384.762,1133.471,1396.537z"/>
			</g>
			<g>
				<polygon style="fill:#F2A18D;" points="977.023,1601.149 1069.996,1586.913 990.157,1499.919 				"/>
				<polygon style="fill:#FFD2C7;" points="1069.996,1586.913 1087.934,1552.814 990.157,1499.919 				"/>
				<polygon style="fill:#F17F7E;" points="977.023,1601.149 1115.663,1744.63 1146.154,1749.709 1069.996,1586.913 				"/>
				<polygon style="fill:#F2A18D;" points="1069.996,1586.913 1087.934,1552.814 1154.141,1742.478 1146.154,1749.709 				"/>
				<path style="fill:#FFD2C7;" d="M1069.996,1586.913c8.273,15.003,15.753,30.378,23.04,45.843
					c7.207,15.502,14.216,31.097,20.424,47.066c-8.279-15.001-15.759-30.375-23.04-45.843
					C1083.218,1618.474,1076.211,1602.879,1069.996,1586.913z"/>
				<path style="fill:#FFF1F0;" d="M990.157,1499.919c6.686,5.516,12.951,11.419,19.069,17.456c3.099,2.982,6.045,6.105,9.062,9.161
					l8.825,9.38c5.817,6.313,11.452,12.795,16.948,19.403c5.493,6.611,10.834,13.361,15.753,20.499
					c-6.691-5.512-12.959-11.412-19.075-17.45c-6.113-6.042-12.089-12.211-17.881-18.547l-8.59-9.595
					c-2.787-3.268-5.646-6.471-8.352-9.813C1000.425,1513.801,995.081,1507.052,990.157,1499.919z"/>
			</g>
			<g>
				<polygon style="fill:#F2A18D;" points="1032.33,1630.382 1023.696,1658.276 1141.249,1779.371 1141.249,1766.531 				"/>
				<polygon style="fill:#F17F7E;" points="1023.696,1658.276 967.465,1672.887 1128.188,1784.462 1141.249,1779.371 				"/>
				<polygon style="fill:#F2A18D;" points="967.465,1672.887 965.03,1584.113 1023.696,1658.276 				"/>
				<polygon style="fill:#FFD2C7;" points="1032.33,1630.382 965.03,1584.113 1023.696,1658.276 				"/>
			</g>
			<g>
				<polygon style="fill:#F2A18D;" points="1215.749,1559.266 1259.631,1642.458 1315.702,1538.543 				"/>
				<polygon style="fill:#FFD2C7;" points="1259.631,1642.458 1297.723,1648.248 1315.702,1538.543 				"/>
				<polygon style="fill:#F17F7E;" points="1215.749,1559.266 1125.548,1737.23 1130.728,1767.704 1259.631,1642.458 				"/>
				<polygon style="fill:#F2A18D;" points="1259.631,1642.458 1297.723,1648.248 1140.175,1772.884 1130.728,1767.704 				"/>
			</g>
			<g>
				<polygon style="fill:#FFD2C7;" points="1198.963,1702.958 1294.201,1716.27 1214.37,1767.801 				"/>
				<polygon style="fill:#F2A18D;" points="1198.963,1702.958 1115.253,1772.499 1214.37,1767.801 				"/>
				<polygon style="fill:#F2A18D;" points="1214.37,1767.801 1236.088,1772.48 1294.201,1716.27 				"/>
				<polygon style="fill:#F17F7E;" points="1115.253,1772.499 1236.088,1772.48 1214.37,1767.801 				"/>
			</g>
			<g>
				<polygon style="fill:#FFD2C7;" points="1108.237,1660.499 1170.736,1587.415 1171.172,1682.432 				"/>
				<polygon style="fill:#F2A18D;" points="1108.237,1660.499 1121.76,1768.483 1171.172,1682.432 				"/>
				<polygon style="fill:#F2A18D;" points="1171.172,1682.432 1186.809,1666.652 1170.736,1587.415 				"/>
				<polygon style="fill:#F17F7E;" points="1121.76,1768.483 1186.809,1666.652 1171.172,1682.432 				"/>
			</g>
			<g>
				<polygon style="fill:#F2A18D;" points="1032.216,1772.841 967.672,1701.556 1061.973,1713.204 				"/>
				<polygon style="fill:#F17F7E;" points="1032.216,1772.841 1141.042,1773.158 1061.973,1713.204 				"/>
				<polygon style="fill:#FFD2C7;" points="1061.973,1713.204 1048.309,1695.688 967.672,1701.556 				"/>
				<polygon style="fill:#F2A18D;" points="1141.042,1773.158 1048.309,1695.688 1061.973,1713.204 				"/>
			</g>
			<path style="fill:#FFF1F0;" d="M1198.074,1441.638c-3.798-1.922-7.432-4.078-11.01-6.316c-3.588-2.223-7.078-4.585-10.55-6.974
				c-3.441-2.433-6.861-4.896-10.186-7.497c-3.334-2.586-6.61-5.256-9.721-8.161c3.8,1.919,7.435,4.074,11.012,6.313
				c3.587,2.224,7.078,4.586,10.548,6.978c3.439,2.436,6.859,4.899,10.183,7.5
				C1191.685,1436.067,1194.961,1438.735,1198.074,1441.638z"/>
			<path style="fill:#FFD2C7;" d="M1133.471,1418.725c0.325,7.343,0.466,14.686,0.704,22.03l0.402,22.029
				c0.264,14.686,0.301,29.373,0.338,44.059c-0.032,14.686-0.071,29.373-0.333,44.059l-0.403,22.03
				c-0.24,7.343-0.381,14.686-0.708,22.03c-0.328-7.343-0.468-14.686-0.708-22.03l-0.403-22.03
				c-0.262-14.686-0.3-29.373-0.333-44.059c0.036-14.686,0.073-29.373,0.338-44.059l0.402-22.029
				C1133.005,1433.412,1133.145,1426.069,1133.471,1418.725z"/>
		</g>
		
			<ellipse transform="matrix(0.5465 -0.8375 0.8375 0.5465 -1075.4624 1878.609)" style="fill:#C7BBBB;" cx="1196.768" cy="1932.267" rx="11.062" ry="11.062"/>
		
			<ellipse transform="matrix(0.1602 -0.9871 0.9871 0.1602 -1069.176 2607.8687)" style="fill:#736C6C;" cx="998.003" cy="1932.267" rx="19.209" ry="19.209"/>
		
			<ellipse transform="matrix(0.7071 -0.7071 0.7071 0.7071 -1074.011 1271.6429)" style="fill:#C7BBBB;" cx="998.003" cy="1932.267" rx="11.062" ry="11.062"/>
		<path style="fill:#595454;" d="M1242.371,1918.394H990.224c-39.052,0-70.709-31.658-70.709-70.709v-188.618h322.856V1918.394z"/>
		<path style="fill:#736C6C;" d="M1245.572,1918.394L1245.572,1918.394c-41.865,0-75.803-33.938-75.803-75.803v-183.524h151.606
			v183.524C1321.375,1884.456,1287.437,1918.394,1245.572,1918.394z"/>
		
			<line style="fill:none;stroke:#877F7F;stroke-width:3.9891;stroke-miterlimit:10;" x1="919.515" y1="1696.774" x2="1321.375" y2="1696.774"/>
		
			<line style="fill:none;stroke:#877F7F;stroke-width:3.9891;stroke-miterlimit:10;" x1="919.515" y1="1721.675" x2="1321.375" y2="1721.675"/>
		
			<ellipse transform="matrix(0.2323 -0.9726 0.9726 0.2323 -904.3098 2718.7935)" style="fill:#736C6C;" cx="1270.172" cy="1932.267" rx="19.209" ry="19.209"/>
		
			<ellipse transform="matrix(0.2298 -0.9732 0.9732 0.2298 -902.2319 2724.5146)" style="fill:#C7BBBB;" cx="1270.172" cy="1932.267" rx="11.062" ry="11.062"/>
		<rect x="1245.572" y="1751.555" style="fill:#877F7F;" width="5.272" height="47.043"/>
		<ellipse style="fill:#877F7F;" cx="1245.572" cy="1775.077" rx="14.756" ry="23.522"/>
		<ellipse style="fill:#C7BBBB;" cx="1250.843" cy="1775.077" rx="14.756" ry="23.522"/>
		<path style="fill:#877F7F;" d="M1256.342,1775.077c0,4.841-2.462,8.766-5.499,8.766c-3.037,0-5.499-3.925-5.499-8.766
			c0-4.841,2.462-8.766,5.499-8.766C1253.88,1766.311,1256.342,1770.236,1256.342,1775.077z"/>
		<rect x="1250.843" y="1766.311" style="fill:#877F7F;" width="171.019" height="17.532"/>
	</g>
	<g>
		<path style="fill:#332B27;" d="M1358.499,1679.56c0,0,11.696-36.773,15.595-36.502s15.14-6.977,14.88-12.613
			c-0.26-5.636,10.299-5.473,12.249-7.098c1.949-1.625,5.198-7.908,3.574-12.076s1.739-7.5,9.317-8.109
			c7.578-0.609,12.343-1.865,12.343-4.973s-3.358-5.707,0-9.931c3.358-4.224,5.415-6.173,10.234-6.173s14.828,1.903,14.86-3.763
			c0.032-5.665-1.981-3.523,0-9.465c1.981-5.942-0.618-6.591,3.605-8.216c4.224-1.625,8.123-0.975,10.072-1.625
			c1.949-0.65,5.198-1.949,5.198-3.899c0-1.949,0.108-4.754,3.79-6.276c3.682-1.522,6.231-2.172,10.155-2.172
			c3.924,0,9.123,0,10.422-3.249c1.3-3.249-2.641-6.49,3.715-7.469c6.357-0.979,8.838-0.971,10.034,0
			c1.196,0.971,2.171,6.193,4.445,5.531s3.574-2.912,7.148,0c3.574,2.912,6.498,4.331,9.747,7.358
			c3.249,3.027,8.447,4.976,9.747,5.951c1.3,0.975,14.296,14.541,15.92,14.743c1.625,0.202,5.354-3.266,6.089,1.392
			c0.734,4.658,7.692,8.79,11.131,9.856s11.667,1.336,13.971,4.874s6.173,3.899,11.372,5.523c5.198,1.625,9.422-1.625,10.397,4.549
			c0.975,6.173,7.797,12.924,10.722,11.66c2.924-1.264,3.899-4.585,6.498,0c2.599,4.585,8.772,9.783,12.346,10.433
			c3.574,0.65,5.523-3.574,10.397,1.3c4.874,4.873,6.173,8.122,9.097,9.097s11.312,2.224,11.312,2.224s25.158,3.868,30.763,5.573
			c5.604,1.706,6.823,3.655,6.823,6.092s-1.661,7.33,2.924,9.991c4.585,2.661,10.745,2.744,12.915,5.117
			c2.169,2.373,6.367,9.173,7.302,12.815c0.935,3.642-53.844,48.348-53.844,48.348s-246.166-8.991-249.307-10.587
			C1423.317,1706.197,1358.499,1679.56,1358.499,1679.56z"/>
		
			<ellipse transform="matrix(0.1611 -0.9869 0.9869 0.1611 -548.3716 3219.3633)" style="fill:#736C6C;" cx="1619.641" cy="1932.267" rx="19.209" ry="19.209"/>
		
			<ellipse transform="matrix(0.9249 -0.3801 0.3801 0.9249 -612.9125 760.6876)" style="fill:#C7BBBB;" cx="1619.641" cy="1932.267" rx="11.062" ry="11.062"/>
		
			<ellipse transform="matrix(0.7071 -0.7071 0.7071 0.7071 -950.1545 1570.6589)" style="fill:#736C6C;" cx="1420.876" cy="1932.267" rx="19.209" ry="19.209"/>
		
			<ellipse transform="matrix(0.7071 -0.7071 0.7071 0.7071 -950.1545 1570.6589)" style="fill:#C7BBBB;" cx="1420.876" cy="1932.267" rx="11.062" ry="11.062"/>
		<path style="fill:#595454;" d="M1665.243,1918.394h-252.146c-39.052,0-70.709-31.658-70.709-70.709v-188.618h322.856V1918.394z"/>
		<path style="fill:#736C6C;" d="M1668.444,1918.394L1668.444,1918.394c-41.865,0-75.803-33.938-75.803-75.803v-183.524h151.606
			v183.524C1744.247,1884.456,1710.309,1918.394,1668.444,1918.394z"/>
		
			<line style="fill:none;stroke:#877F7F;stroke-width:3.9891;stroke-miterlimit:10;" x1="1342.387" y1="1696.774" x2="1744.247" y2="1696.774"/>
		
			<line style="fill:none;stroke:#877F7F;stroke-width:3.9891;stroke-miterlimit:10;" x1="1342.387" y1="1721.675" x2="1744.247" y2="1721.675"/>
		
			<ellipse transform="matrix(0.1611 -0.9869 0.9869 0.1611 -486.7969 3291.8071)" style="fill:#736C6C;" cx="1693.044" cy="1932.267" rx="19.209" ry="19.209"/>
		
			<ellipse transform="matrix(0.2739 -0.9618 0.9618 0.2739 -629.0784 3031.2681)" style="fill:#C7BBBB;" cx="1693.044" cy="1932.267" rx="11.062" ry="11.062"/>
	</g>
	<g>
		<path style="fill:#D9AB7E;" d="M1780.768,1251.355l-36.237,25.765c-3.807,2.707-9.089,1.815-11.796-1.992L1283.9,643.88
			c-2.707-3.807-1.815-9.089,1.992-11.796l36.237-25.765c3.807-2.707,9.089-1.815,11.796,1.992l448.835,631.249
			C1785.467,1243.367,1784.575,1248.648,1780.768,1251.355z"/>
		<path style="fill:#DA5450;" d="M1358.962,628.721l-64.006,45.51c-114.404,81.871-127.147,164.609-127.147,164.609
			c110.716-105.562,158.96-119.867,158.96-119.867l64.006-45.51c0,0,29.356-40.871,165.422-110.778
			C1556.198,562.685,1473.863,547.55,1358.962,628.721z"/>
	</g>
	<g>
		<g>
			<rect x="580.464" y="1910.387" style="fill:#B34642;" width="271.459" height="84.803"/>
			<ellipse style="fill:#DA5450;" cx="580.464" cy="1952.789" rx="28.805" ry="42.401"/>
			<path style="fill:#332B27;" d="M675.234,1952.788c0,23.426-10.151,42.401-22.671,42.401h-17.386c3.083,0,6.019-1.146,8.703-3.225
				c3.377-2.638,6.355-6.769,8.682-11.966c3.293-7.356,5.285-16.843,5.285-27.21c0-10.367-1.992-19.855-5.285-27.21
				c-2.328-5.197-5.306-9.328-8.682-11.966c-2.684-2.079-5.621-3.225-8.703-3.225h17.386
				C665.084,1910.386,675.234,1929.362,675.234,1952.788z"/>
			<path style="fill:#332B27;" d="M815.728,1952.788c0,23.426-10.151,42.401-22.671,42.401h-17.386c3.083,0,6.019-1.146,8.703-3.225
				c3.377-2.638,6.355-6.769,8.682-11.966c3.293-7.356,5.285-16.843,5.285-27.21c0-10.367-1.992-19.855-5.285-27.21
				c-2.328-5.197-5.306-9.328-8.682-11.966c-2.684-2.079-5.621-3.225-8.703-3.225h17.386
				C805.578,1910.386,815.728,1929.362,815.728,1952.788z"/>
			<ellipse style="fill:#B34642;" cx="851.923" cy="1952.789" rx="28.805" ry="42.401"/>
		</g>
		<g>
			<rect x="610.554" y="1836.814" style="fill:#B34642;" width="271.458" height="84.803"/>
			<ellipse style="fill:#DA5450;" cx="610.554" cy="1879.215" rx="28.805" ry="42.401"/>
			<path style="fill:#332B27;" d="M705.325,1879.214c0,23.426-10.151,42.401-22.671,42.401h-17.386c3.083,0,6.019-1.146,8.703-3.225
				c3.376-2.638,6.355-6.769,8.682-11.966c3.293-7.356,5.285-16.843,5.285-27.21c0-10.367-1.992-19.855-5.285-27.21
				c-2.328-5.197-5.306-9.328-8.682-11.966c-2.684-2.079-5.621-3.225-8.703-3.225h17.386
				C695.174,1836.813,705.325,1855.788,705.325,1879.214z"/>
			<path style="fill:#332B27;" d="M845.818,1879.214c0,23.426-10.151,42.401-22.671,42.401h-17.386c3.083,0,6.019-1.146,8.703-3.225
				c3.377-2.638,6.355-6.769,8.682-11.966c3.293-7.356,5.285-16.843,5.285-27.21c0-10.367-1.992-19.855-5.285-27.21
				c-2.328-5.197-5.306-9.328-8.682-11.966c-2.684-2.079-5.621-3.225-8.703-3.225h17.386
				C835.668,1836.813,845.818,1855.788,845.818,1879.214z"/>
			<ellipse style="fill:#B34642;" cx="882.013" cy="1879.215" rx="28.805" ry="42.401"/>
		</g>
		<rect x="642.988" y="1910.387" style="fill:#B34642;" width="271.458" height="84.803"/>
		<ellipse style="fill:#DA5450;" cx="642.988" cy="1952.789" rx="28.805" ry="42.401"/>
		<path style="fill:#332B27;" d="M737.758,1952.788c0,23.426-10.151,42.401-22.671,42.401h-17.386c3.083,0,6.019-1.146,8.703-3.225
			c3.377-2.638,6.355-6.769,8.682-11.966c3.293-7.356,5.285-16.843,5.285-27.21c0-10.367-1.992-19.855-5.285-27.21
			c-2.328-5.197-5.306-9.328-8.682-11.966c-2.684-2.079-5.621-3.225-8.703-3.225h17.386
			C727.608,1910.386,737.758,1929.362,737.758,1952.788z"/>
		<path style="fill:#332B27;" d="M878.252,1952.788c0,23.426-10.151,42.401-22.671,42.401h-17.386c3.083,0,6.019-1.146,8.703-3.225
			c3.377-2.638,6.355-6.769,8.682-11.966c3.293-7.356,5.285-16.843,5.285-27.21c0-10.367-1.992-19.855-5.285-27.21
			c-2.328-5.197-5.306-9.328-8.682-11.966c-2.684-2.079-5.621-3.225-8.703-3.225h17.386
			C868.102,1910.386,878.252,1929.362,878.252,1952.788z"/>
		<ellipse style="fill:#B34642;" cx="914.447" cy="1952.789" rx="28.805" ry="42.401"/>
		
			<path style="fill:none;stroke:#F2BF8D;stroke-width:1.9988;stroke-linecap:round;stroke-linejoin:round;stroke-miterlimit:10;" d="
			M610.554,1879.215c0,0-6.737,9.843-11.049,20.488c-5.16,12.739-18.865,13.61-56.056,7.95"/>
		
			<path style="fill:none;stroke:#F2BF8D;stroke-width:1.9988;stroke-linecap:round;stroke-linejoin:round;stroke-miterlimit:10;" d="
			M641.277,1952.788c0,0-3.203-27.386-32.008-34.893c-28.805-7.507-45.608-8.624-64.742-5.66"/>
		
			<path style="fill:none;stroke:#F2BF8D;stroke-width:1.9988;stroke-linecap:round;stroke-linejoin:round;stroke-miterlimit:10;" d="
			M580.464,1952.789c0,0,36.791-39.4,4.335-42.402c-32.456-3.002-41.35-11.626-41.35-11.626"/>
		<path style="fill:#D9AB7E;" d="M587.31,1917.895h-16.844c-1.674,0-3.032-1.357-3.032-3.032v-11.184
			c0-1.674,1.357-3.032,3.032-3.032h16.844c1.674,0,3.032,1.358,3.032,3.032v11.184
			C590.342,1916.537,588.984,1917.895,587.31,1917.895z"/>
	</g>
	<g>
		<polygon style="fill:#2D628C;" points="1614.543,1635.954 1614.661,1618.104 1593.717,1621.194 		"/>
		<path style="fill:#2D628C;" d="M1571.826,1615.169l-70.884,44.888c-2.033,0.851-3.964,2.036-5.689,3.602
			c-8.117,7.375-8.719,19.934-1.344,28.051c7.375,8.117,19.934,8.719,28.051,1.344l81.712-42.833L1571.826,1615.169z"/>
		<path style="fill:#2D628C;" d="M1488.837,1681.124c-0.129-0.916-0.219-1.844-0.219-2.795c0-10.967,8.891-19.858,19.858-19.858
			c10.967,0,19.858,8.891,19.858,19.858l-1.174,88.672h-33.044L1488.837,1681.124z"/>
		<path style="fill:#B34642;" d="M1595.866,1501.204c0.28,1.596-34.331-8.402-32.23-11.096c2.796-3.585,26.285,1.57,26.285,1.57
			L1595.866,1501.204z"/>
		<path style="fill:#2D628C;" d="M1609.401,1649.836l-44.396,53.104c-7.837,9.374-21.919,10.632-31.293,2.795h0
			c-9.374-7.837-10.632-21.919-2.795-31.293l44.396-53.104c7.837-9.374,21.919-10.632,31.293-2.795l0,0
			C1615.98,1626.38,1617.238,1640.462,1609.401,1649.836z"/>
		<polygon style="fill:#BDDEFF;" points="1573.071,1530.954 1552.036,1539.406 1554.966,1625.716 1614.605,1626.641 
			1622.714,1536.333 1594.552,1529.395 		"/>
		<path style="fill:#FDAE97;" d="M1573.076,1517.632v13.322c0,0,0.796,2.877,7.569,2.905c6.759,0.014,13.909-4.469,13.909-4.469
			l-2.095-29.13L1573.076,1517.632z"/>
		<polygon style="fill:#E89780;" points="1573.071,1529.127 1586.907,1514.764 1573.071,1514.582 		"/>
		<path style="fill:#FDAE97;" d="M1567.406,1490.834c0,0,0,8.169,0,13.964v4.79c0,3.784,1.061,9.398,5.321,10.697
			c4.245,1.299,10.096-0.475,14.174-4.901c4.078-4.441,13.127-24.438,0.545-31.825
			C1574.849,1476.172,1567.699,1488.879,1567.406,1490.834z"/>
		<path style="fill:#2D628C;" d="M1525.661,1686.731c0-10.967,8.891-19.858,19.858-19.858c10.967,0,16.986,4.573,19.378,15.511
			c5.554,25.392,17.204,93.019,17.204,93.019h-34.408l-21.813-85.877C1525.751,1688.611,1525.661,1687.683,1525.661,1686.731z"/>
		<path style="fill:#BDDEFF;" d="M1524.886,1607.868L1524.886,1607.868c6.568,3.726,14.991,1.401,18.717-5.168l24.771-43.666
			c3.726-6.568,1.401-14.991-5.168-18.717l0,0c-6.568-3.726-14.991-1.401-18.717,5.168l-24.77,43.666
			C1515.993,1595.719,1518.318,1604.141,1524.886,1607.868z"/>
		<path style="fill:#BDDEFF;" d="M1659.249,1597.562L1659.249,1597.562c5.717-4.934,6.357-13.648,1.423-19.365l-32.801-38.005
			c-4.934-5.717-13.648-6.357-19.365-1.423l0,0c-5.717,4.934-6.357,13.648-1.423,19.365l32.801,38.005
			C1644.818,1601.855,1653.532,1602.496,1659.249,1597.562z"/>
		<path style="fill:#B37661;" d="M1586.14,1482.866l-16.398,3.813c0,0-4.453,1.451-4.171,6.346
			c0.282,4.895,15.644-4.097,15.644-4.097s-6.025,2.73-2.542,4.895c3.483,2.165,7.466-0.659,7.466-0.659s3.454,1.975,2.889,11.048
			c-0.565,9.072,4.85,11.076,4.85,11.076s-0.649-13.745,2.005-17.416C1598.537,1494.2,1594.641,1480.569,1586.14,1482.866z"/>
		<g>
			<path style="fill:#FDAE97;" d="M1588.175,1506.316c-1.477,2.314-1.872,3.942-0.056,5.102c1.817,1.16,4.837,0.794,6.314-1.52
				s1.203-5.13-0.614-6.29C1592.004,1502.448,1589.653,1504.002,1588.175,1506.316z"/>
			<path style="fill:none;stroke:#E89780;stroke-width:0.3346;stroke-miterlimit:10;" d="M1592.917,1506.138
				c0,0-1.866-0.278-3.144,2.113c0,0,1.179-0.271,2.613,0"/>
		</g>
		<path style="fill:#2C3447;" d="M1578.719,1501.462c0,0.878-0.46,1.589-1.028,1.589s-1.028-0.712-1.028-1.589
			s0.46-1.589,1.028-1.589S1578.719,1500.584,1578.719,1501.462z"/>
		<path style="fill:none;stroke:#2C3447;stroke-width:0.4189;stroke-miterlimit:10;" d="M1578.059,1511.431
			c0,0-1.527,2.974-5.391,2.276"/>
		<path style="fill:none;stroke:#2C3447;stroke-width:0.4189;stroke-miterlimit:10;" d="M1574.353,1502.069l-1.937,5.605
			c-0.196,0.568,0.02,1.197,0.523,1.524l1.579,1.027"/>
		<path style="fill:none;stroke:#2C3447;stroke-width:0.4189;stroke-miterlimit:10;" d="M1580.339,1498.823
			c0,0-2.165-1.515-4.229-0.554"/>
		<path style="fill:#2C3447;" d="M1568.101,1501.462c0,0.878,0.46,1.589,1.028,1.589c0.568,0,1.028-0.712,1.028-1.589
			s-0.46-1.589-1.028-1.589C1568.562,1499.872,1568.101,1500.584,1568.101,1501.462z"/>
		<path style="fill:none;stroke:#2C3447;stroke-width:0.4189;stroke-miterlimit:10;" d="M1567.147,1498.736
			c0,0,1.5-1.427,3.564-0.467"/>
		<path style="fill:#E89780;" d="M1577.085,1507.258c0.27,0.807,1.789,1.025,3.392,0.488c1.604-0.537,2.685-1.626,2.414-2.433
			s-1.789-1.025-3.392-0.488C1577.896,1505.362,1576.815,1506.451,1577.085,1507.258z"/>
		<path style="fill:#E89780;" d="M1567.406,1504.799v3.114c1.313,0.154,2.388-0.209,2.57-0.894
			C1570.171,1506.209,1569.026,1505.218,1567.406,1504.799z"/>
		<polygon style="fill:#FDAE97;" points="1523.193,1780.297 1523.877,1767.001 1497.041,1767.001 1496.616,1780.297 		"/>
		<polygon style="fill:#E89780;" points="1496.794,1774.731 1523.877,1767.001 1497.041,1767.001 		"/>
		<path style="fill:#FDAE97;" d="M1487.436,1577.038l-1.994,15.997c0,0-5.659-0.4-6.817,0.485c-1.852,1.41-3.545,1.789-6.24,4.042
			c-4.905,4.084-18.776-1.158-18.776-1.158s-2.315,0.316-2.884-0.821c-0.568-1.116,1.747-2.568,1.747-2.568
			c-0.884-0.989,0.295-2.4,4.273-3.178c3.263-0.632,9.199-4.378,11.135-6.21c0.442-0.4,0.653-0.695,0.653-0.863
			c-0.042-0.379,1.284-2.126-0.4-2.168c0,0-2.042-0.253-2.063-0.253c-2.568-0.042-5.578-0.652-5.726-1.221
			c-0.21-0.737,0.337-1.368,2.105-1.958c0.442-0.168,0.989-0.316,1.621-0.421c2.947-0.547,11.43-1.158,14.145-1.284
			c2.105-0.084,5.662,0.653,9.03,1.537L1487.436,1577.038z"/>
		<path style="fill:#FDAE97;" d="M1542.943,1600.502c-1.432,5.557-7.153,9.828-12.601,8.669
			c-11.789-2.509-44.899-16.135-44.899-16.135l1.804-16.039l47.255,9.15C1540.775,1587.767,1544.563,1594.229,1542.943,1600.502z"/>
		<polygon style="fill:#FDAE97;" points="1582.269,1788.7 1580.074,1775.403 1553.882,1775.403 1557.215,1788.7 		"/>
		<polygon style="fill:#E89780;" points="1555.483,1781.791 1580.074,1775.403 1553.882,1775.403 		"/>
		
			<line style="fill:none;stroke:#2C3447;stroke-width:0.4189;stroke-miterlimit:10;" x1="1553.64" y1="1586.667" x2="1552.956" y2="1566.51"/>
		<path style="fill:#332B27;" d="M1582.269,1788.7l2.355,9.692h-35.151l0,0c-1.138-4.961,2.631-9.692,7.72-9.692h0.022H1582.269z"/>
		<path style="fill:#332B27;" d="M1523.193,1780.297v10.553h-36.818l0.045-0.87c0.281-5.427,4.762-9.682,10.196-9.682l0,0H1523.193z
			"/>
		
			<path style="fill:none;stroke:#FFFFFF;stroke-width:0.2229;stroke-linecap:round;stroke-linejoin:round;stroke-miterlimit:10;" d="
			M1496.088,1782.396c0,0-0.802-3.507-2.78-2.555c-1.979,0.952,2.655,2.68,2.655,2.68l-2.755,1.904"/>
		
			<path style="fill:none;stroke:#FFFFFF;stroke-width:0.2229;stroke-linecap:round;stroke-linejoin:round;stroke-miterlimit:10;" d="
			M1496.088,1782.396c0,0,0.802-3.507,2.78-2.555c1.979,0.952-2.655,2.68-2.655,2.68l2.755,1.904"/>
		
			<path style="fill:none;stroke:#FFFFFF;stroke-width:0.2229;stroke-linecap:round;stroke-linejoin:round;stroke-miterlimit:10;" d="
			M1557.466,1791.195c0,0-0.802-3.506-2.78-2.555c-1.979,0.952,2.655,2.68,2.655,2.68l-2.755,1.903"/>
		
			<path style="fill:none;stroke:#FFFFFF;stroke-width:0.2229;stroke-linecap:round;stroke-linejoin:round;stroke-miterlimit:10;" d="
			M1557.466,1791.195c0,0,0.801-3.506,2.78-2.555c1.979,0.952-2.655,2.68-2.655,2.68l2.755,1.903"/>
		<path style="fill:#DA5450;" d="M1595.866,1501.204c0,0-8.996-8.434-17.655-10.113s-14.575-0.983-14.575-0.983
			s3.467-3.263,4.637-5.735c2.211-4.669,7.239-8.693,16.241-6.933c9.002,1.76,13.017,8.857,12.59,14.195
			C1596.675,1496.974,1595.501,1499.389,1595.866,1501.204z"/>
		<path style="fill:none;stroke:#FFFFFF;stroke-width:0.4279;stroke-miterlimit:10;" d="M1591.567,1493.025
			c0,0-8.486-9.036-23.046-7.238"/>
		
			<path style="fill:none;stroke:#FFFFFF;stroke-width:0.4279;stroke-linecap:round;stroke-linejoin:round;stroke-miterlimit:10;" d="
			M1586.74,1478.014c0,0-5.785-0.702-8.312,4.992c0,0-2.251-0.377-4.472-0.378c0,0,1.061-3.777,6.048-5.605"/>
		
			<path style="fill:none;stroke:#FFFFFF;stroke-width:0.4279;stroke-linecap:round;stroke-linejoin:round;stroke-miterlimit:10;" d="
			M1590.476,1479.735c0,0-5.941-1.1-9.374,3.848"/>
		
			<path style="fill:none;stroke:#FFFFFF;stroke-width:0.4279;stroke-linecap:round;stroke-linejoin:round;stroke-miterlimit:10;" d="
			M1575.904,1477.661c0,0-3.931,1.899-4.705,4.924"/>
		<polygon style="fill:#2D628C;" points="1614.661,1634.556 1616.971,1600.295 1603.029,1581.001 1609.879,1533.171 
			1599.893,1530.711 1589.282,1559.893 1574.517,1559.893 1568.436,1532.817 1561.893,1535.446 1560.537,1579.89 1553.64,1592.804 
			1554.966,1625.716 		"/>
		
			<path style="fill:none;stroke:#D6EAFF;stroke-width:0.5259;stroke-linecap:round;stroke-linejoin:round;stroke-miterlimit:10;" d="
			M1527.663,1698.623c0,0-11.062-17.231,1.915-29.57c12.977-12.339,36.165-31.636,36.165-31.636"/>
		<path style="fill:#FDAE97;" d="M1643.901,1578.776c-5.68,3.64-7.349,11.265-3.708,16.945c3.64,5.68,11.265,7.349,16.945,3.708
			l44.937-36.818l-8.262-11.791L1643.901,1578.776z"/>
		<path style="fill:#FDAE97;" d="M1693.813,1550.821l2.923-6.598c0,0,4.602-5.401,6.136-7.202c0.865-1.015,2.872-3.829,3.46-4.06
			c0.465-0.183,1.599,0.264,1.596,0.763c-0.004,0.65-1.744,3.754-2.401,4.986c-0.625,1.171-2.498,4.682-2.498,4.682
			s8.978-4.528,11.886-6.222c1.636-0.953,6.284-3.949,7.101-2.806c0.623,0.87-3.754,4.49-5.239,5.743
			c-1.365,1.152-5.425,4.65-5.425,4.65s6.414-3.832,8.552-5.11c1.556-0.93,5.804-4.309,6.753-3.053
			c0.939,1.243-3.508,4.251-4.868,5.428c-1.92,1.662-7.679,6.647-7.679,6.647s6.812-3.851,9.082-5.134
			c1.256-0.71,4.691-3.332,5.502-2.103c0.826,1.252-3.009,3.421-4.174,4.309c-1.996,1.522-7.985,6.09-7.985,6.09
			s5.008-2.643,6.677-3.524c0.713-0.376,2.879-1.432,3.276-0.694c0.54,1.003-2.262,2.652-3.133,3.311l-7.2,5.449
			c-0.582,0.441-1.218,0.807-1.891,1.09l-12.234,5.137L1693.813,1550.821z"/>
	</g>
	<g>
		<path style="fill:#FDAE97;" d="M953.976,1748.27l-13.158-2.709l4.876-14.474c0,0,10.449,8.652,10.913,8.583
			C957.072,1739.601,953.976,1748.27,953.976,1748.27z"/>
		<g>
			<path style="fill:#BF966F;" d="M940.184,1712.155l-32.131,223.016c-0.648,4.5-0.673,9.074-0.068,13.569l0.933,7.048
				c0.15,1.213,1.802,1.451,2.288,0.33l2.885-6.498c1.849-4.141,3.117-8.537,3.765-13.037l32.131-223.016
				c0.109-0.758-0.513-1.481-1.392-1.608l-6.621-0.954C941.095,1710.878,940.293,1711.397,940.184,1712.155z"/>
			<g>
				
					<rect x="937.891" y="1673.223" transform="matrix(-0.9707 0.2402 -0.2402 -0.9707 2258.2192 3113.9216)" style="fill:#ADA3A3;" width="2.89" height="42.725"/>
				<polygon style="fill:#ADA3A3;" points="932.249,1671.881 950.61,1674.527 949.668,1681.064 933.941,1678.798 				"/>
				
					<rect x="954.318" y="1675.589" transform="matrix(0.8634 0.5045 -0.5045 0.8634 986.5692 -250.4001)" style="fill:#ADA3A3;" width="2.89" height="42.725"/>
				<polygon style="fill:#ADA3A3;" points="968.971,1677.172 950.61,1674.527 949.668,1681.064 965.395,1683.33 				"/>
			</g>
			<path style="fill:#ADA3A3;" d="M940.154,1712.367l-4.329,30.046l9.803,1.412l4.329-30.046c0.127-0.879-0.483-1.693-1.362-1.82
				l-6.621-0.954C941.095,1710.878,940.28,1711.488,940.154,1712.367z"/>
			<path style="fill:#877F7F;" d="M882.697,1910.931l33.163,4.778l33.163,4.778c1.7,0.245,2.793,2.111,2.36,4.032l-11.65,51.695
				c-1.026,4.55-4.059,8.24-7.981,9.707l-23.7,8.864c-2.36,0.883-5.008,0.501-7.023-1.012l-20.234-15.194
				c-3.349-2.515-5.217-6.91-4.917-11.565l3.417-52.882C879.422,1912.168,880.997,1910.686,882.697,1910.931z"/>
			<path style="fill:#ADA3A3;" d="M915.05,1886.61l-6.996,48.561c-0.648,4.5-0.673,9.074-0.068,13.569l0.933,7.048
				c0.15,1.213,1.802,1.451,2.288,0.33l2.885-6.498c1.849-4.141,3.117-8.537,3.765-13.037l6.996-48.561L915.05,1886.61z"/>
		</g>
		<path style="fill:#FDAE97;" d="M959.319,1735.653l-7.51-5.142c-0.267-0.183-0.558-0.327-0.865-0.429l-6.736-2.24
			c-0.841-0.279-1.756-0.227-2.559,0.147l-4.884,2.274c-0.516,0.24-0.733,0.858-0.481,1.368l0.27,0.546
			c0.19,0.384,0.6,0.607,1.025,0.557l3.784-0.439c0.829-0.096,1.666,0.11,2.355,0.58l2.368,1.616c0.616,0.42,1.08,1.028,1.323,1.732
			l0.564,1.631c0.322,0.932,1.025,1.682,1.933,2.064l7.035,2.96L959.319,1735.653z"/>
		<path style="fill:#FDAE97;" d="M933.476,1747.573l5.685-0.641c0.288-0.032,0.511-0.266,0.531-0.554l0.689-9.857
			c0.026-0.372-0.29-0.677-0.661-0.639l-4.049,0.423c-0.255,0.027-0.465,0.212-0.522,0.462l-2.325,10.074
			C932.731,1747.245,933.064,1747.619,933.476,1747.573z"/>
		<polygon style="fill:#FDAE97;" points="1078.848,1717.278 1054.187,1716.859 1055.479,1690.964 1056.095,1678.581 
			1056.13,1677.964 1075.426,1669.852 1076.055,1678.604 1076.52,1684.982 		"/>
		<path style="fill:#332B27;" d="M1076.142,1661.425c0,0,2.16-8.402-1.579-8.125
			C1070.824,1653.577,1076.142,1661.425,1076.142,1661.425z"/>
		<path style="fill:#4CA676;" d="M1030.798,1796.695l-13.36,85.432c-0.401,2.157-0.47,4.412-0.107,6.703
			c1.708,10.785,11.836,18.143,22.621,16.435c10.785-1.708,15.174-9.837,17.527-22.07c4.518-23.483,19.892-93.877,19.892-93.877
			L1030.798,1796.695z"/>
		<path style="fill:#FDAE97;" d="M952.518,1747.97l47.659,26.109c5.863,2.266,12.767-1.301,15.354-7.945
			c2.572-6.644-0.122-13.946-5.985-16.226l-50.226-14.254L952.518,1747.97z"/>
		<polygon style="fill:#4CA676;" points="1097.862,1793.112 1059.768,1795.668 1059.958,1837.872 1064.479,1844.558 
			1068.67,1885.245 1107.231,1882.162 		"/>
		<path style="fill:#FDAE97;" d="M996.352,1771.896l0.125,0.093c5.477,4.074,13.292,2.925,17.365-2.552l33.192-44.628
			c4.073-5.477,2.925-13.292-2.552-17.365l-0.125-0.093c-5.477-4.074-13.292-2.925-17.365,2.552l-33.192,44.628
			C989.727,1760.008,990.875,1767.823,996.352,1771.896z"/>
		<path style="fill:#FDAE97;" d="M1066.837,1706.448c9.049,0.199,12.902-4.298,14.065-6.065l-3.384-1.529l-22.376-1.126l-2.688,0.86
			C1053.588,1700.701,1057.593,1706.245,1066.837,1706.448z"/>
		<path style="fill:#BDDEFF;" d="M1030.655,1706.448l-0.862,96.238h69.076l2.337-94.427l-22.898-9.051
			c-1.148,1.776-3,3.842-12.032,3.643c-9.246-0.199-10.578-2.924-11.711-5.021L1030.655,1706.448z"/>
		<path style="fill:#4CA676;" d="M1003.979,1971.321h35.545l16.854-82.968c1.883-10.761-5.297-21.018-16.043-22.916
			c-10.761-1.883-21.003,5.297-22.901,16.043c-0.168,0.934-0.245,1.852-0.276,2.786L1003.979,1971.321z"/>
		<path style="fill:#4CA676;" d="M1068.533,1883.745l9.456,87.576h34.642l-5.338-88.051c0.046-0.919-0.214-1.944-0.291-2.893
			c-0.964-10.884-9.613-19.012-20.497-18.063C1075.636,1863.278,1067.584,1872.861,1068.533,1883.745z"/>
		<polygon style="fill:#EA9D85;" points="1077.2,1694.419 1063.338,1684.312 1076.52,1684.982 		"/>
		<path style="fill:#FDAE97;" d="M1075.141,1655.493c0,0,2.196,7.991,3.754,13.66l1.288,4.685c1.017,3.702,1.489,9.479-2.329,11.894
			c-3.804,2.412-10.004,2.25-15.183-0.984c-5.183-3.248-19.41-20.376-9.089-30.985
			C1063.918,1643.151,1074.328,1653.659,1075.141,1655.493z"/>
		<path style="fill:#332B27;" d="M1055.74,1685.714c0,0,2.413-3.219,1.693-7.111s-2.974-13.574-0.274-14.949
			c2.701-1.375,10.895,0.287,14.207-2.76c0,0-6.074,1.523-8.028,0c0,0,12.646-0.069,12.374-5.263
			c-0.272-5.193-7.612-8.24-12.806-7.478c-5.193,0.762-10.11,4.016-11.841,8.379c0,0-2.908,1.039-3.462,3.739
			s4.916,12.672,6.094,15.649C1054.874,1678.898,1055.74,1685.714,1055.74,1685.714z"/>
		<g>
			<path style="fill:#FDAE97;" d="M1058.986,1676.22c2.067,1.866,2.891,3.353,1.426,4.976c-1.465,1.623-4.518,2.077-6.586,0.211
				c-2.067-1.866-2.555-4.694-1.09-6.318C1054.202,1673.466,1056.919,1674.354,1058.986,1676.22z"/>
		</g>
		<path style="fill:#332B27;" d="M1066.931,1668.93c0.236,0.859,0.878,1.431,1.433,1.278c0.556-0.153,0.815-0.973,0.578-1.831
			c-0.236-0.859-0.878-1.431-1.433-1.278C1066.954,1667.251,1066.695,1668.071,1066.931,1668.93z"/>
		<path style="fill:#332B27;" d="M1077.318,1666.075c0.236,0.859-0.023,1.679-0.578,1.831c-0.556,0.153-1.197-0.42-1.433-1.278
			c-0.236-0.859,0.023-1.679,0.578-1.831C1076.44,1664.645,1077.082,1665.217,1077.318,1666.075z"/>
		<path style="fill:#E89780;" d="M1070.088,1674.161c-0.047,0.862-1.474,1.484-3.187,1.389c-1.713-0.094-3.063-0.869-3.016-1.731
			s1.474-1.484,3.187-1.389C1068.785,1672.524,1070.135,1673.299,1070.088,1674.161z"/>
		<path style="fill:#E89780;" d="M1078.895,1669.153l0.837,3.046c-1.243,0.503-2.392,0.437-2.754-0.183
			C1076.569,1671.276,1077.423,1669.998,1078.895,1669.153z"/>
		
			<path style="fill:none;stroke:#EA9D85;stroke-width:0.6433;stroke-linecap:round;stroke-linejoin:round;stroke-miterlimit:10;" d="
			M1055.388,1679.245c1.33-0.65,2.556-0.702,2.556-0.702c-1.892-1.996-3.643-1.222-3.643-1.222"/>
		<path style="fill:none;stroke:#332B27;stroke-width:0.4115;stroke-miterlimit:10;" d="M1070.257,1678.505
			c0,0,2.293,2.498,5.885,0.777"/>
		<path style="fill:none;stroke:#332B27;stroke-width:0.4115;stroke-miterlimit:10;" d="M1071.366,1668.35l3.402,4.963
			c0.345,0.503,0.303,1.176-0.102,1.632l-0.626,0.706l-0.642,0.723"/>
		<path style="fill:none;stroke:#332B27;stroke-width:0.4115;stroke-miterlimit:10;" d="M1065.188,1667.53
			c0,0,1.339-2.323,3.649-2.327"/>
		<path style="fill:none;stroke:#332B27;stroke-width:0.4115;stroke-miterlimit:10;" d="M1077.518,1663.153
			c0,0-1.851-0.993-3.612,0.501"/>
		<polygon style="fill:#FDAE97;" points="1034.535,1983.958 1036.009,1971.321 1008.772,1971.321 1006.61,1983.958 		"/>
		<path style="fill:#332B27;" d="M1034.532,1983.971l-0.712,9.012l-0.192,2.273h-39.826l0.164-0.904
			c0.082-0.466,0.219-0.931,0.356-1.37c1.671-5.314,6.601-9.012,12.298-9.012H1034.532z"/>
		<path style="fill:#FFF1F0;" d="M1033.82,1992.983l-0.192,2.273h-39.826l0.164-0.904c0.082-0.466,0.219-0.931,0.356-1.37H1033.82z"
			/>
		<g>
			<path style="fill:none;stroke:#FFF1F0;stroke-width:0.34;stroke-linecap:round;stroke-linejoin:round;stroke-miterlimit:10;" d="
				M1005.217,1986.082c0,0-1.834-2.616-3.152-1.766c-1.318,0.849,3.152,2.11,3.152,2.11l-1.433,3.037"/>
			<path style="fill:none;stroke:#FFF1F0;stroke-width:0.34;stroke-linecap:round;stroke-linejoin:round;stroke-miterlimit:10;" d="
				M1005.217,1986.082c0,0,1.834-2.616,3.152-1.766c1.318,0.849-3.152,2.11-3.152,2.11l1.433,3.037"/>
		</g>
		<polygon style="fill:#EA9D85;" points="1007.76,1977.238 1036.009,1971.321 1008.772,1971.321 		"/>
		<polygon style="fill:#FDAE97;" points="1082.935,1983.958 1081.462,1971.321 1108.698,1971.321 1110.86,1983.958 		"/>
		<path style="fill:#332B27;" d="M1082.938,1983.971l0.712,9.012l0.192,2.273h39.826l-0.164-0.904
			c-0.082-0.466-0.219-0.931-0.356-1.37c-1.671-5.314-6.601-9.012-12.298-9.012H1082.938z"/>
		<path style="fill:#FFF1F0;" d="M1083.651,1992.983l0.192,2.273h39.826l-0.164-0.904c-0.082-0.466-0.219-0.931-0.356-1.37H1083.651
			z"/>
		<g>
			<path style="fill:none;stroke:#FFF1F0;stroke-width:0.34;stroke-linecap:round;stroke-linejoin:round;stroke-miterlimit:10;" d="
				M1112.254,1986.082c0,0,1.834-2.616,3.152-1.766c1.318,0.849-3.152,2.11-3.152,2.11l1.433,3.037"/>
			<path style="fill:none;stroke:#FFF1F0;stroke-width:0.34;stroke-linecap:round;stroke-linejoin:round;stroke-miterlimit:10;" d="
				M1112.254,1986.082c0,0-1.834-2.616-3.152-1.766c-1.318,0.849,3.152,2.11,3.152,2.11l-1.433,3.037"/>
		</g>
		<polygon style="fill:#EA9D85;" points="1082.199,1977.64 1108.698,1971.321 1081.462,1971.321 		"/>
		<path style="fill:#BDDEFF;" d="M1044.482,1707.444l-0.125-0.093c-5.477-4.074-13.292-2.925-17.365,2.552l-24.999,29.767
			l23.74,17.523l21.301-32.384C1051.108,1719.332,1049.959,1711.517,1044.482,1707.444z"/>
		<polygon style="fill:#4CA676;" points="1050.126,1699.43 1055.082,1726.147 1077.371,1726.147 1082.049,1700.686 
			1090.347,1703.965 1091.366,1754.306 1099.537,1769.817 1101.207,1824.904 1026.527,1824.904 1030.102,1768.155 1041.51,1753.085 
			1042.131,1702.312 		"/>
		<path style="fill:#FDAE97;" d="M1115.896,1786.735L1115.896,1786.735c6.71-1.74,10.777-8.654,9.036-15.364l-13.984-53.925
			c-1.74-6.71-8.654-10.777-15.364-9.036l0,0c-6.71,1.74-10.777,8.654-9.037,15.364l13.984,53.925
			C1102.272,1784.409,1109.186,1788.475,1115.896,1786.735z"/>
		<path style="fill:#EA9D85;" d="M1103.197,1859.926l-7.51,2.02c0,0-0.484-2.224,0.653-2.658c1.137-0.434,8.895-3.852,8.895-3.852
			L1103.197,1859.926z"/>
		<path style="fill:#FDAE97;" d="M1101.74,1829.146l-0.021,0.207c-0.094,0.274-4.408,6.497-4.408,6.497l-0.967,16.676
			c-0.035,0.598,0.332,1.146,0.897,1.343l0.335,0.117c0.675,0.235,1.415-0.101,1.682-0.764l3.428-8.49l-1.505,14.42
			c-0.065,0.626,0.507,1.13,1.12,0.985l14.278-3.371c0.423-0.1,0.718-0.484,0.704-0.919l-0.781-24.533l0.202-1.736L1101.74,1829.146
			z"/>
		<path style="fill:#FDAE97;" d="M1101.74,1829.146l14.965,0.432l8.814-53.682c0.26-6.292-5.342-11.695-12.461-12.001
			c-7.118-0.306-13.18,4.592-13.44,10.884L1101.74,1829.146z"/>
		<path style="fill:#BDDEFF;" d="M1110.949,1717.446c-1.74-6.71-8.654-10.777-15.364-9.036c-6.71,1.74-10.777,8.654-9.036,15.364
			l6.914,36.772l29.886-6.782L1110.949,1717.446z"/>
		<polygon style="fill:#4CA676;" points="1090.473,1710.218 1091.261,1749.634 1084.073,1718.945 		"/>
		<path style="fill:#332B27;" d="M1051.318,1656.802c0,0-0.423-3.102,0.714-4.745c0,0-1.626,1.668-1.183,4.745
			c0,0-1.512-1.069-3.858-0.417c0,0,3.05,0.156,4.093,1.069L1051.318,1656.802z"/>
		
			<line style="fill:none;stroke:#FFFFFF;stroke-width:0.6848;stroke-miterlimit:10;" x1="1007.349" y1="1961.858" x2="1031.077" y2="1961.858"/>
		
			<line style="fill:none;stroke:#FFFFFF;stroke-width:0.6848;stroke-miterlimit:10;" x1="1078.485" y1="1961.858" x2="1102.213" y2="1961.858"/>
		<polyline style="fill:none;stroke:#FFFFFF;stroke-width:0.6848;stroke-miterlimit:10;" points="1064.801,1847.684 
			1068.457,1842.248 1069.457,1825.881 		"/>
		<path style="fill:none;stroke:#FFFFFF;stroke-width:0.6848;stroke-miterlimit:10;" d="M1071.281,1759.707h-9.207
			c-6.031,0-10.919-4.889-10.919-10.919v-7.084h31.045v7.084C1082.2,1754.818,1077.312,1759.707,1071.281,1759.707z"/>
	</g>
	<path style="fill:#FFEEDE;" d="M459.958,1215.88l-24.042-219.278l2.732-0.299c0,0,14.593-6.853,63.576-5.173
		c0,0-20.674-17.087-65.493-12.311l-2.732,0.3l-1.087-9.919c-0.163-1.488-1.501-2.562-2.989-2.399l-14.161,1.553
		c-1.488,0.163-2.562,1.502-2.399,2.989l1.088,9.919l-2.732,0.3c-44.789,5.049-61.27,26.209-61.27,26.209
		c47.456-12.253,63.187-8.725,63.187-8.725l2.732-0.299l24.042,219.278c0.163,1.488,1.502,2.562,2.99,2.399l14.161-1.553
		C459.048,1218.706,460.122,1217.368,459.958,1215.88z"/>
</g>
</svg>
